<?xml version="1.0" encoding="UTF-8" standalone="no"?>
<!-- Created with Inkscape (http://www.inkscape.org/) -->
<svg
   xmlns:dc="http://purl.org/dc/elements/1.1/"
   xmlns:cc="http://creativecommons.org/ns#"
   xmlns:rdf="http://www.w3.org/1999/02/22-rdf-syntax-ns#"
   xmlns:svg="http://www.w3.org/2000/svg"
   xmlns="http://www.w3.org/2000/svg"
   xmlns:sodipodi="http://sodipodi.sourceforge.net/DTD/sodipodi-0.dtd"
   xmlns:inkscape="http://www.inkscape.org/namespaces/inkscape"
   width="400"
   height="212.08505"
   id="svg2578"
   sodipodi:version="0.32"
   inkscape:version="0.46"
   sodipodi:docname="formigavetor.svg"
   inkscape:output_extension="org.inkscape.output.svg.inkscape"
   version="1.0">
  <defs
     id="defs2580">
    <filter
       inkscape:collect="always"
       id="filter4447"
       x="-0.039672956"
       width="1.0793459"
       y="-0.12304292"
       height="1.2460858">
      <feGaussianBlur
         inkscape:collect="always"
         stdDeviation="0.72333043"
         id="feGaussianBlur4449" />
    </filter>
    <inkscape:perspective
       sodipodi:type="inkscape:persp3d"
       inkscape:vp_x="0 : 526.18109 : 1"
       inkscape:vp_y="0 : 1000 : 0"
       inkscape:vp_z="744.09448 : 526.18109 : 1"
       inkscape:persp3d-origin="372.04724 : 350.78739 : 1"
       id="perspective2586" />
  </defs>
  <sodipodi:namedview
     id="base"
     pagecolor="#ffffff"
     bordercolor="#666666"
     borderopacity="1.0"
     inkscape:pageopacity="0.0"
     inkscape:pageshadow="2"
     inkscape:zoom="2.32"
     inkscape:cx="200"
     inkscape:cy="106.04252"
     inkscape:document-units="px"
     inkscape:current-layer="layer1"
     showgrid="false"
     inkscape:window-width="1024"
     inkscape:window-height="721"
     inkscape:window-x="-4"
     inkscape:window-y="-4" />
  <metadata
     id="metadata2583">
    <rdf:RDF>
      <cc:Work
         rdf:about="">
        <dc:format>image/svg+xml</dc:format>
        <dc:type
           rdf:resource="http://purl.org/dc/dcmitype/StillImage" />
      </cc:Work>
    </rdf:RDF>
  </metadata>
  <g
     inkscape:label="Camada 1"
     inkscape:groupmode="layer"
     id="layer1"
     transform="translate(-154.68044,-328.86585)">
    <g
       id="g3439"
       transform="matrix(2.5423759,0,0,2.5423759,-727.64528,-402.81729)">
      <g
         style="fill:#000000;fill-opacity:1;stroke:#ffffb7;stroke-width:0.89940053;stroke-miterlimit:4;stroke-dasharray:none;stroke-opacity:1"
         transform="matrix(-0.2039995,0.2278003,0.2278003,0.2039995,442.55715,144.18068)"
         id="g2520">
        <path
           style="opacity:1;fill:#000000;fill-opacity:1;stroke:#ffffb7;stroke-width:0.89940053;stroke-linecap:round;stroke-linejoin:round;stroke-miterlimit:4;stroke-dasharray:none;stroke-opacity:1"
           d="M 410.70863,403.62364 C 408.71756,403.19954 406.65927,401.66639 405.78789,399.95836 C 402.94065,394.37731 406.48448,386.36833 412.91781,383.84493 C 414.02475,383.41074 414.53692,383.33058 416.26525,383.32104 C 418.08728,383.31098 418.42514,383.36571 419.42045,383.83218 C 422.58864,385.31701 424.33522,389.09877 423.67298,393.03998 C 422.88761,397.71393 419.5429,401.80371 415.35618,403.20944 C 413.96074,403.67798 411.84782,403.86628 410.70863,403.62364 L 410.70863,403.62364 z M 415.91412,399.69694 C 417.47965,399.22789 419.12095,397.23999 419.45356,395.41006 C 419.71323,393.98122 418.83981,392.09977 417.62521,391.47167 C 416.89527,391.0942 415.28208,391.099 414.36424,391.48137 C 412.63642,392.20116 411.21788,394.32206 411.21442,396.19076 C 411.20931,398.94727 413.2743,400.48785 415.91412,399.69694 L 415.91412,399.69694 z"
           id="path2522" />
        <path
           style="opacity:1;fill:#000000;fill-opacity:1;stroke:#ffffb7;stroke-width:0.89940053;stroke-linecap:round;stroke-linejoin:round;stroke-miterlimit:4;stroke-dasharray:none;stroke-opacity:1"
           d="M 334.7696,481.35217 C 334.25188,477.20968 334.11128,476.71908 333.14593,475.6864 L 332.66368,475.17052 L 334.73874,473.45153 C 336.34816,472.1183 337.23277,471.54832 338.68077,470.91159 C 344.36807,468.41069 350.32347,463.42697 360.0695,453.01266 C 362.59923,450.30948 362.65778,450.22717 362.55249,449.52256 C 362.49316,449.12566 362.39051,448.39799 362.32436,447.90552 L 362.20407,447.0101 L 363.43658,446.33126 C 365.77034,445.04588 367.3973,443.75251 370.22314,440.93623 C 373.7198,437.45139 379.14711,431.35493 379.14711,430.91199 C 379.14711,430.46321 377.37209,428.30013 377.00309,428.29923 C 376.83928,428.29883 376.1258,428.77949 375.41756,429.36735 C 374.40472,430.20805 373.98659,430.4362 373.45865,430.4362 C 372.9137,430.4362 372.44434,430.7121 370.96315,431.90302 C 368.72947,433.69898 366.8011,434.71159 365.61466,434.71159 C 365.14804,434.71159 364.76627,434.66537 364.76627,434.60888 C 364.76627,434.55238 365.0299,433.98389 365.35215,433.34556 L 365.93802,432.18495 L 368.64319,430.82978 L 371.34838,429.47461 L 371.47894,428.60382 C 371.55076,428.12488 371.7095,427.60419 371.83169,427.44671 C 371.95389,427.28924 372.9721,426.75343 374.09438,426.25603 C 375.21667,425.75863 376.25246,425.23814 376.39614,425.0994 C 376.61064,424.89225 376.61933,424.36299 376.44472,422.14069 C 376.32777,420.65214 376.23208,419.24752 376.23208,419.01929 C 376.23208,418.79106 375.80495,418.11622 375.28288,417.51963 C 373.45902,415.43542 372.82259,413.63969 371.56124,407.01874 C 371.23541,405.30858 370.86318,403.80529 370.73401,403.67809 C 370.60485,403.55089 368.50836,402.39454 366.07516,401.10843 C 363.64196,399.82232 361.10912,398.40197 360.44665,397.95209 C 358.04235,396.31938 355.01341,393.04409 351.01013,387.74818 C 349.22156,385.3821 343.52068,380.27752 340.24983,378.11339 C 337.70667,376.43072 333.86631,374.70935 333.10161,374.90932 C 332.91856,374.95719 328.0821,378.80856 322.35392,383.46794 L 311.93906,391.93953 L 300.21427,398.00824 L 288.48947,404.07695 L 275.37181,412.94536 C 260.95184,422.69423 259.69715,423.4285 257.17905,423.59227 C 256.28023,423.65072 255.74949,423.60638 255.66246,423.46556 C 255.21684,422.74455 257.40697,417.72652 259.19352,415.37518 C 260.80028,413.26047 261.54106,412.60482 263.80883,411.2903 C 264.87768,410.67073 267.63239,408.98133 269.93041,407.53606 C 279.03441,401.81037 282.04282,400.32983 287.76872,398.75728 C 291.70615,397.6759 295.98915,395.74974 301.80148,392.44642 C 306.98029,389.50315 308.24994,388.65223 320.65205,379.81276 C 332.95196,371.04613 332.99619,371.0169 334.15838,370.88595 C 336.94705,370.57173 337.1502,370.42013 336.2914,369.29419 L 335.75777,368.59458 L 336.22127,368.74056 C 336.99144,368.98313 340.83892,370.78263 342.04528,371.4645 C 345.10884,373.19613 347.04916,374.82582 352.44532,380.19963 C 357.26788,385.0022 359.70841,387.98541 361.60884,391.4008 C 362.37421,392.7763 363.24065,393.87321 365.4471,396.25991 C 368.10704,399.13717 368.8762,399.74169 369.08398,399.11832 C 369.12508,398.99504 368.91808,397.00552 368.62399,394.69718 C 367.26892,384.06144 367.39856,378.99723 369.22142,371.35812 C 369.54024,370.02206 370.02202,367.70461 370.29205,366.20823 C 371.96015,356.96423 376.15195,348.30026 383.21013,339.50803 C 384.50412,337.89612 384.82359,337.61594 385.9437,337.11061 C 391.50893,334.59988 396.07594,333.92975 399.02028,335.19184 C 400.21857,335.7055 401.5304,336.9376 402.66227,338.61254 C 403.16787,339.36074 405.02279,341.99865 406.78431,344.47457 C 408.54582,346.95049 410.44388,349.80084 411.00221,350.80869 C 412.75955,353.98088 415.24691,356.43019 418.2871,357.98208 C 419.92467,358.818 422.98301,359.76345 425.69053,360.27078 C 430.8443,361.23649 431.6437,361.44045 433.27991,362.20721 C 436.29742,363.62125 438.12886,365.90159 439.00809,369.33935 C 440.1612,373.84793 440.43564,380.49488 439.63327,384.48038 C 438.68991,389.16612 437.80053,391.15154 433.8463,397.39912 C 432.12124,400.12468 428.45168,405.94017 425.69174,410.32245 C 422.69149,415.08628 420.27572,418.71004 419.68404,419.33426 C 417.71997,421.40637 414.12835,423.73599 411.8418,424.42093 C 410.54944,424.80805 410.49165,424.98018 411.07516,426.70359 C 411.68646,428.50913 411.98986,430.454 411.98986,432.5673 C 411.98986,434.0526 411.94897,434.20397 411.23864,435.34794 C 410.44097,436.63257 409.0145,439.19752 407.32347,442.38785 C 406.75692,443.4567 406.25888,444.37208 406.21673,444.42204 C 406.1327,444.5216 403.07488,441.29979 403.05976,441.09576 C 403.05461,441.02641 404.04283,440.13793 405.25576,439.12134 L 407.46112,437.27299 L 407.90739,434.00035 L 408.35366,430.7277 L 407.23077,429.10529 L 406.10786,427.48286 L 405.01641,427.60932 L 403.92493,427.73576 L 400.9904,430.68925 L 398.05585,433.64274 L 397.25839,431.40788 C 396.63473,429.66013 396.35498,428.43176 395.97494,425.77214 L 395.48899,422.37126 L 396.54901,421.29678 L 397.60901,420.2223 L 397.60901,418.74766 L 397.60901,417.27301 L 398.38636,416.7586 C 398.8139,416.47566 399.1637,416.14755 399.1637,416.02946 C 399.1637,415.70519 395.28785,410.22528 395.05849,410.22528 C 394.67837,410.22528 388.18239,412.7962 387.90919,413.05476 C 387.67369,413.27765 387.7483,413.73728 388.43405,416.28824 C 389.10494,418.78386 389.26987,419.77737 389.46001,422.46843 C 389.66513,425.37158 389.81393,426.18792 391.03271,431.09635 C 391.77305,434.0781 392.45892,436.66736 392.55681,436.85025 C 392.8074,437.31851 392.02911,437.6372 390.32142,437.76559 C 388.87028,437.87468 387.24649,437.67888 384.06941,437.01169 L 382.09276,436.5966 L 381.12083,435.20453 C 380.00855,433.61148 379.70966,433.318 379.3966,433.51149 C 379.27378,433.5874 377.56672,436.7525 375.60315,440.54504 C 372.4043,446.72348 371.75328,447.83467 369.34299,451.23013 C 367.86347,453.31438 366.52164,455.172 366.36112,455.35817 C 366.09138,455.67102 366.01585,455.60477 365.36401,454.48365 C 364.87671,453.64556 364.54051,453.27065 364.27619,453.27065 C 363.99483,453.27065 363.43204,454.00633 362.14796,456.05274 C 361.18781,457.58289 360.37117,458.74162 360.3332,458.62769 C 360.29522,458.51376 360.10365,458.42055 359.90748,458.42055 C 359.64103,458.42055 359.0237,459.42601 357.46684,462.39561 L 355.38286,466.37067 L 354.28098,465.50498 C 353.67494,465.02886 353.03214,464.6393 352.85249,464.6393 C 352.62819,464.6393 352.1277,465.43394 351.25445,467.17658 C 350.24497,469.19113 349.91437,469.6935 349.6498,469.61501 C 348.31028,469.21761 348.47889,469.10573 346.03556,472.0134 C 344.77323,473.51565 343.63956,474.74203 343.51629,474.73869 C 343.39301,474.73535 342.94236,474.51718 342.51482,474.25385 C 342.08728,473.99051 341.60499,473.77462 341.44306,473.77407 C 341.28113,473.77352 340.06191,474.86242 338.7337,476.19383 C 336.39333,478.53984 336.29653,478.67034 335.59882,480.42063 L 334.87889,482.22668 L 334.7696,481.35217 z M 415.97374,404.11922 C 419.76492,402.67046 422.79308,399.42383 424.23552,395.26142 C 424.77325,393.70969 424.96914,390.61922 424.63255,388.99784 C 423.90457,385.49118 421.06719,382.78287 417.5506,382.23803 C 414.22334,381.72251 410.82383,383.02426 407.90059,385.9332 C 406.52852,387.29858 406.0817,387.90544 405.3251,389.43135 C 403.8676,392.3708 403.39653,394.8425 403.81779,397.33996 C 404.40861,400.84283 406.79865,403.6024 410.0465,404.53173 C 411.47536,404.94058 414.34743,404.7407 415.97374,404.11922 L 415.97374,404.11922 z"
           id="path2524" />
        <path
           style="opacity:1;fill:#000000;fill-opacity:1;stroke:#ffffb7;stroke-width:0.89940053;stroke-linecap:round;stroke-linejoin:round;stroke-miterlimit:4;stroke-dasharray:none;stroke-opacity:1"
           d="M 415.48791,474.56981 L 414.61339,474.45325 L 414.61339,472.02406 L 414.61339,469.59486 L 412.28137,465.26619 C 410.04378,461.11284 409.77249,460.70953 405.58315,455.30836 C 401.29636,449.78154 401.14511,449.55461 397.26407,442.82698 L 393.31116,435.97477 L 392.05243,430.82487 C 390.94277,426.28478 390.76175,425.27227 390.5238,422.2741 C 390.30562,419.52519 390.11747,418.37655 389.54231,416.28246 C 389.15098,414.85755 388.86008,413.66967 388.89591,413.64273 C 389.04512,413.53059 394.42144,411.53304 394.63144,411.51171 C 394.75737,411.49893 395.5213,412.44537 396.32906,413.61493 L 397.79773,415.74141 L 397.12036,416.36185 C 396.45722,416.96926 396.443,417.01423 396.443,418.50465 L 396.443,420.02702 L 395.42639,421.05641 L 394.40978,422.08581 L 394.95693,425.89412 C 395.44283,429.27594 395.6215,430.02585 396.55247,432.59043 C 397.12906,434.17882 397.55396,435.60064 397.49663,435.75002 C 397.36738,436.08676 401.35898,441.47528 401.88059,441.66823 C 402.08649,441.74439 402.99932,442.63388 403.90913,443.64488 C 405.25278,445.13796 405.54215,445.56756 405.45038,445.93312 C 405.35582,446.30996 405.72893,446.78538 407.74366,448.85524 C 410.10135,451.27737 412.281,453.86137 414.25498,456.57436 C 415.53622,458.33522 423.067,471.28288 423.067,471.72481 C 423.067,471.78251 422.41718,471.82972 421.62295,471.82972 L 420.17888,471.82972 L 418.97326,473.28724 C 417.65255,474.8839 417.70353,474.86514 415.48791,474.56982 L 415.48791,474.56981 z"
           id="path2526" />
        <path
           style="opacity:1;fill:#000000;fill-opacity:1;stroke:#ffffb7;stroke-width:0.89940053;stroke-linecap:round;stroke-linejoin:round;stroke-miterlimit:4;stroke-dasharray:none;stroke-opacity:1"
           d="M 395.11341,453.06885 C 395.20246,450.92957 395.71805,449.69963 397.208,448.07217 C 397.77066,447.45758 398.28783,446.95533 398.35726,446.95604 C 398.42672,446.95675 398.80962,447.54705 399.20818,448.26781 C 399.60675,448.98856 400.11181,449.85241 400.33053,450.18747 L 400.7282,450.79667 L 398.14832,452.60013 C 396.72943,453.59204 395.44979,454.49513 395.3047,454.607 C 395.08589,454.77572 395.05327,454.51336 395.11341,453.06885 L 395.11341,453.06885 z"
           id="path2528" />
        <path
           style="opacity:1;fill:#000000;fill-opacity:1;stroke:#ffffb7;stroke-width:0.89940053;stroke-linecap:round;stroke-linejoin:round;stroke-miterlimit:4;stroke-dasharray:none;stroke-opacity:1"
           d="M 413.63247,398.68963 C 412.20087,398.04426 411.82372,395.95079 412.82976,394.23409 C 414.65735,391.11557 418.68001,391.72663 418.35838,395.07391 C 418.11865,397.56864 415.5334,399.54659 413.63247,398.68963 L 413.63247,398.68963 z"
           id="path2530" />
        <path
           style="opacity:1;fill:#000000;fill-opacity:1;stroke:#ffffb7;stroke-width:0.89940053;stroke-linecap:round;stroke-linejoin:round;stroke-miterlimit:4;stroke-dasharray:none;stroke-opacity:1"
           d="M 354.59166,549.14361 C 354.97818,547.09295 356.22123,545.01967 358.81267,542.1034 C 362.82994,537.58262 362.51252,537.84435 364.37725,537.51521 L 366.02873,537.22371 L 366.48999,535.18318 L 366.95122,533.14266 L 368.23559,532.26815 C 372.02245,529.68969 376.73313,525.1847 380.42816,520.608 C 382.57732,517.94604 387.36713,511.56877 403.53802,489.83904 L 414.21526,475.49146 L 415.58035,475.62355 C 416.33113,475.69621 417.026,475.83176 417.12445,475.92479 C 417.23158,476.02597 416.75256,477.25481 415.9321,478.98367 C 414.87534,481.21048 413.76706,483.05078 411.10114,487.00561 C 406.45345,493.90036 404.54486,496.39054 401.9044,499.00479 C 399.79467,501.09359 399.62245,501.32516 398.58005,503.47452 C 396.37885,508.01323 393.42083,513.09974 389.97234,518.27597 C 387.30776,522.27552 377.97206,535.81037 377.5661,536.26245 C 377.36898,536.48195 375.89574,537.57509 374.2922,538.69165 L 371.37668,540.72175 L 370.88823,542.29014 L 370.39977,543.85854 L 366.65989,545.47979 C 358.9887,548.80534 357.64404,549.30039 355.29389,549.66435 L 354.46946,549.79203 L 354.59166,549.14361 z"
           id="path2532" />
        <path
           style="opacity:1;fill:#000000;fill-opacity:1;stroke:#ffffb7;stroke-width:0.89940053;stroke-linecap:round;stroke-linejoin:round;stroke-miterlimit:4;stroke-dasharray:none;stroke-opacity:1"
           d="M 414.25506,542.98141 C 414.39573,542.55445 415.01829,540.50323 415.63852,538.42316 C 416.25875,536.34308 417.07398,533.9453 417.45013,533.09475 C 417.82628,532.2442 419.00984,529.24645 420.08025,526.43308 C 422.93402,518.93254 424.57057,515.70828 427.40431,512.00367 C 429.30219,509.5225 432.52671,500.86625 435.67294,489.80645 C 437.35821,483.88213 439.32068,475.58851 439.11568,475.2568 C 438.86954,474.85856 438.53727,474.95696 437.06125,475.86515 C 436.29565,476.33625 435.60544,476.65792 435.5275,476.57997 C 435.44955,476.50203 435.51043,475.96199 435.66277,475.37989 C 435.81516,474.79779 436.01936,473.45581 436.11665,472.3977 C 436.27982,470.62255 436.20823,470.22963 435.18984,467.31331 C 429.75343,451.74507 425.80671,431.36103 425.8036,418.83504 C 425.80264,414.98912 426.25493,413.15979 428.26046,408.8979 C 430.89968,403.28945 433.65003,399.58144 439.16963,394.19024 C 442.46009,390.97634 442.95245,390.60644 446.27778,388.84992 C 457.11093,383.12764 464.45917,378.14993 468.85083,373.55893 C 472.74611,369.48683 474.99776,364.8985 474.99776,361.03288 C 474.99776,359.32449 474.69599,359.2019 473.12804,360.27338 C 472.56923,360.65526 471.30813,361.22812 470.32561,361.54641 C 468.01298,362.29559 461.54122,362.54212 457.00743,362.05375 L 453.84903,361.71353 L 450.81985,359.09999 L 447.79068,356.48645 L 448.9857,354.80347 C 450.02899,353.33423 450.20442,352.87616 450.36715,351.19666 C 450.75722,347.17008 452.30403,344.30931 455.62208,341.47796 C 456.52903,340.70404 457.35273,340.06974 457.45254,340.0684 C 457.55236,340.06706 458.41809,339.00691 459.37637,337.71253 C 461.32405,335.08176 461.21747,335.11623 464.27111,336.12924 C 471.69828,338.59313 476.43101,343.74866 478.73358,351.88374 C 479.14003,353.31974 479.81271,355.17563 480.22845,356.00794 C 481.70545,358.96487 483.8249,364.33306 484.47612,366.76638 C 485.45735,370.43291 485.59933,372.58228 485.03004,375.1511 C 483.56593,381.75745 480.36273,386.57851 474.17326,391.49133 C 471.82724,393.35346 468.48868,395.00819 453.69825,401.63965 C 445.53573,405.29941 438.65534,408.49457 438.40848,408.74002 C 437.24841,409.89348 435.69674,415.56768 435.69674,418.6564 C 435.69674,419.56973 435.6238,420.31699 435.53467,420.31699 C 435.44551,420.31699 434.67879,419.69861 433.83079,418.94282 C 432.98282,418.18703 432.19254,417.56866 432.07464,417.56866 C 431.67045,417.56866 430.71942,419.80477 430.56342,421.12194 C 430.42655,422.27757 430.55944,422.77206 431.64774,425.15692 C 432.32991,426.65179 433.90362,430.10101 435.1449,432.82185 C 440.81532,445.25136 442.61317,451.14825 442.68608,457.55676 L 442.72673,461.12958 L 443.98752,463.74049 C 446.36097,468.65556 447.23969,472.11346 447.23969,476.53816 C 447.23969,478.11543 447.14694,479.40274 447.03357,479.39884 C 446.9202,479.39495 446.41316,478.78094 445.90681,478.03439 C 444.16498,475.46629 441.49482,473.52651 440.93919,474.42556 C 440.83181,474.59927 440.85671,475.63633 440.99452,476.73013 C 441.58906,481.44977 440.82178,489.61986 439.11804,496.7113 C 438.45311,499.47896 436.02002,507.72447 435.79562,507.97063 C 435.73571,508.03639 435.20539,507.62024 434.61717,507.04587 C 434.02897,506.47151 433.4225,506.07894 433.26947,506.17351 C 432.98258,506.35082 432.58888,507.48351 430.90616,512.97292 L 429.92586,516.17095 L 428.62011,516.36534 C 427.90194,516.47225 427.18002,516.67017 427.0158,516.80516 C 426.73734,517.03406 426.85225,518.80219 427.3068,521.28266 C 427.43044,521.95737 427.3921,522.02273 427.04285,521.73287 C 426.81814,521.54636 426.44717,521.46557 426.21851,521.55331 C 425.88053,521.68301 425.80278,522.30816 425.80278,524.89603 L 425.80278,528.07922 L 424.88364,527.37815 C 423.65804,526.44335 423.40047,526.49026 423.07462,527.7077 C 422.9229,528.27454 422.5066,529.84172 422.14952,531.1903 L 421.50027,533.64228 L 422.41478,536.52399 C 422.91776,538.10893 423.32929,539.4661 423.32929,539.53993 C 423.32929,539.61375 421.6681,539.58798 419.63776,539.48268 L 415.94624,539.2912 L 415.3055,541.41355 C 414.9531,542.58084 414.51503,543.58581 414.33202,543.64681 C 414.08519,543.72908 414.06531,543.5573 414.25505,542.98142 L 414.25506,542.98141 z"
           id="path2534" />
        <path
           style="opacity:1;fill:#000000;fill-opacity:1;stroke:#ffffb7;stroke-width:0.89940053;stroke-linecap:round;stroke-linejoin:round;stroke-miterlimit:4;stroke-dasharray:none;stroke-opacity:1"
           d="M 435.97157,358.57986 C 434.63891,358.32104 430.59239,357.04187 428.96335,356.36445 C 426.8702,355.49401 426.34876,355.00959 424.49883,352.21668 C 421.8581,348.22988 419.47124,347.05111 413.3225,346.69714 L 410.32395,346.52451 L 409.27806,343.58074 C 408.70282,341.96167 407.83302,339.2749 407.34517,337.61013 L 406.45818,334.58327 L 407.49732,331.2096 C 408.8511,326.81453 409.92136,324.26683 411.30679,322.14138 C 411.92554,321.19211 412.7858,319.71456 413.21847,318.85792 C 414.09885,317.11485 415.49111,315.60588 416.21898,315.60588 C 416.58284,315.60588 416.74522,315.9231 416.88723,316.91134 C 417.28573,319.68445 419.66479,321.49721 423.36905,321.85026 C 426.0031,322.10131 427.25386,321.76111 429.68879,320.13132 C 431.49491,318.92241 432.40853,318.5204 434.61329,317.96442 C 439.6065,316.70529 445.25043,316.76115 449.25243,318.10932 C 451.68736,318.92959 454.23055,320.67774 456.02924,322.76763 C 459.06257,326.29196 460.15681,328.88954 460.15681,332.56572 L 460.15681,334.8734 L 458.67879,336.87196 C 457.86589,337.97117 456.57847,339.32737 455.81781,339.88572 C 453.77947,341.38201 451.51422,343.95145 450.68139,345.71186 C 449.92692,347.30671 449.17669,350.29698 449.1683,351.7429 C 449.16165,352.87859 447.1266,355.75403 445.5907,356.79777 C 444.91049,357.26002 443.79742,357.84085 443.11721,358.08851 C 441.89258,358.53439 437.34691,358.84695 435.97157,358.57985 L 435.97157,358.57986 z"
           id="path2536" />
        <path
           style="opacity:1;fill:#000000;fill-opacity:1;stroke:#ffffb7;stroke-width:0.89940053;stroke-linecap:round;stroke-linejoin:round;stroke-miterlimit:4;stroke-dasharray:none;stroke-opacity:1"
           d="M 425.66536,359.17267 C 425.5142,359.1242 424.46297,358.87424 423.32929,358.61722 C 417.53953,357.30461 413.28839,353.80696 411.0264,348.49495 L 410.67873,347.67848 L 413.6373,347.84278 C 416.84855,348.0211 419.00697,348.55007 420.55442,349.53795 C 421.81733,350.34419 422.41332,351.02014 423.97217,353.41421 C 424.66791,354.4827 425.48808,355.58401 425.79479,355.86158 C 426.22261,356.24875 426.35244,356.70827 426.35244,357.83523 C 426.35244,359.24204 426.28585,359.37168 425.66536,359.17268 L 425.66536,359.17267 z"
           id="path2538" />
        <path
           style="opacity:1;fill:#000000;fill-opacity:1;stroke:#ffffb7;stroke-width:0.89940053;stroke-linecap:round;stroke-linejoin:round;stroke-miterlimit:4;stroke-dasharray:none;stroke-opacity:1"
           d="M 468.5392,330.55687 C 466.82955,330.32612 464.5906,330.20983 463.38609,330.28923 C 461.99005,330.38124 461.25614,330.32999 461.25614,330.14046 C 461.25614,329.43362 459.52069,325.6172 458.54778,324.18452 C 456.90019,321.75834 453.79876,318.98891 451.529,317.91711 C 448.23003,316.3593 446.52634,316.03028 441.74305,316.02727 C 437.92752,316.02487 437.16778,316.10714 434.45999,316.81595 C 431.88932,317.48887 431.11875,317.83008 429.31161,319.09568 C 427.36085,320.46189 427.02919,320.59723 425.27116,320.74462 C 422.58317,320.96997 419.82621,320.0933 418.73423,318.66598 C 418.02915,317.74436 417.97006,317.47586 417.97006,315.19363 C 417.97006,312.56867 418.4417,311.0535 419.81597,309.26361 C 420.85683,307.90796 435.35204,295.86262 436.86544,295.09573 C 441.50122,292.74658 447.96434,294.2724 456.53287,299.73884 C 459.78145,301.8113 461.96147,302.9582 465.37863,304.39253 L 469.91336,306.29595 L 475.68484,306.86701 C 480.75362,307.36852 481.79708,307.39699 484.25501,307.10081 C 485.86564,306.90674 487.81808,306.84543 488.85428,306.9564 C 490.6369,307.1473 490.65756,307.15914 490.93228,308.14827 C 491.08493,308.69775 491.2105,309.36075 491.21132,309.62161 C 491.21217,309.88248 491.6148,310.45278 492.10607,310.88897 C 492.59733,311.32515 493.39464,312.03928 493.87786,312.47592 L 494.75644,313.26981 L 493.72815,315.88071 C 492.94164,317.8777 492.138,319.23945 490.31045,321.67203 L 487.92106,324.85244 L 483.05697,325.58669 C 480.38169,325.99054 478.10963,326.45562 478.00791,326.62021 C 477.90617,326.78479 477.65937,327.60142 477.4594,328.43492 C 477.22513,329.41148 476.88357,330.08948 476.49886,330.34155 C 475.61192,330.92269 471.97793,331.021 468.5392,330.55687 L 468.5392,330.55687 z"
           id="path2540" />
        <path
           style="opacity:1;fill:#000000;fill-opacity:1;stroke:#ffffb7;stroke-width:0.89940053;stroke-linecap:round;stroke-linejoin:round;stroke-miterlimit:4;stroke-dasharray:none;stroke-opacity:1"
           d="M 486.12846,335.67444 C 482.01183,334.42161 480.24947,333.51554 478.86731,331.94136 C 477.93393,330.87829 477.91771,330.57183 478.67265,328.2604 L 478.98282,327.31072 L 483.24272,326.68331 C 485.58567,326.33823 487.75088,325.99779 488.05432,325.92678 C 488.35777,325.85577 489.71725,324.30325 491.07542,322.47674 L 493.54479,319.15581 L 495.05848,319.37338 C 498.00955,319.79757 502.45438,319.54813 507.81224,318.65764 C 510.66887,318.18287 513.04282,317.83114 513.08773,317.87604 C 513.13261,317.92093 512.88509,318.7712 512.53765,319.76551 C 510.83413,324.64063 506.33773,328.52059 498.08367,332.23788 C 495.20843,333.53277 488.28931,336.23724 487.95387,336.1973 C 487.85688,336.18574 487.03541,335.95046 486.12846,335.67444 z"
           id="path2542" />
        <path
           style="opacity:1;fill:#000000;fill-opacity:1;stroke:#ffffb7;stroke-width:0.89940053;stroke-linecap:round;stroke-linejoin:round;stroke-miterlimit:4;stroke-dasharray:none;stroke-opacity:1"
           d="M 418.55716,303.30714 C 417.59305,301.37988 415.2282,296.15463 413.30193,291.69547 C 411.37567,287.23632 409.05387,282.09064 408.14239,280.26062 C 406.34872,276.65939 406.31016,276.34691 407.45074,274.6544 C 408.33146,273.34751 409.51725,272.7436 411.5811,272.55088 L 413.36066,272.3847 L 415.72861,277.16181 C 417.03096,279.78923 418.2703,282.49546 418.48268,283.17567 C 418.69507,283.85588 420.61449,288.23263 422.74806,292.90178 C 424.88163,297.57093 426.62727,301.47957 426.62727,301.58766 C 426.62727,301.8095 420.73961,306.81125 420.47847,306.81125 C 420.38585,306.81125 419.52125,305.2344 418.55715,303.30714 L 418.55716,303.30714 z"
           id="path2544" />
        <path
           style="opacity:1;fill:#000000;fill-opacity:1;stroke:#ffffb7;stroke-width:0.89940053;stroke-linecap:round;stroke-linejoin:round;stroke-miterlimit:4;stroke-dasharray:none;stroke-opacity:1"
           d="M 424.07427,293.13834 C 419.74617,283.60448 419.96457,284.20598 421.23254,285.31211 C 421.79977,285.80694 423.94459,287.33669 425.99881,288.71155 C 430.10648,291.46075 431.7737,292.87382 432.98233,294.6305 L 433.78124,295.7917 L 430.82264,298.27515 C 429.19539,299.64104 427.79034,300.76002 427.70027,300.76177 C 427.61024,300.76351 425.97853,297.33297 424.07428,293.13834 L 424.07427,293.13834 z"
           id="path2546" />
        <path
           style="opacity:1;fill:#000000;fill-opacity:1;stroke:#ffffb7;stroke-width:0.89940053;stroke-linecap:round;stroke-linejoin:round;stroke-miterlimit:4;stroke-dasharray:none;stroke-opacity:1"
           d="M 474.99776,305.71613 L 470.18819,305.19451 L 465.65346,303.30028 C 462.23262,301.87132 460.13986,300.77454 457.13366,298.83523 C 451.86094,295.43375 447.13397,293.41815 443.68276,293.09969 C 442.35969,292.9776 440.89448,292.93387 440.42682,293.00251 C 439.59993,293.12387 439.56335,293.08301 439.09894,291.51818 C 438.42646,289.25237 438.52325,285.8965 439.35814,282.53335 C 439.93245,280.21977 440.18261,279.66958 441.09227,278.7192 C 443.52545,276.17715 446.81359,274.59191 450.91898,273.98166 C 453.27287,273.63177 453.6573,273.65319 458.75602,274.41827 C 461.70494,274.86078 464.30865,275.38749 464.54204,275.58874 C 464.7754,275.79 467.74905,277.08941 471.1501,278.47632 C 474.55115,279.86323 477.76669,281.20894 478.29574,281.46678 C 479.75881,282.17982 482.0787,284.66224 482.3988,285.85727 C 483.13884,288.6202 483.2516,293.29394 482.66376,296.83882 C 482.56306,297.44613 482.80198,297.67238 483.99851,298.10291 C 486.19948,298.89484 487.93856,300.41839 488.93118,302.42428 C 489.41458,303.40111 489.88583,304.59158 489.97842,305.06975 L 490.14673,305.93916 L 487.72535,305.90313 C 486.39359,305.88331 484.06722,305.9505 482.55564,306.05243 C 480.60098,306.18425 478.41843,306.08713 474.99776,305.71614 L 474.99776,305.71613 z"
           id="path2548" />
        <path
           style="opacity:1;fill:#000000;fill-opacity:1;stroke:#ffffb7;stroke-width:0.89940053;stroke-linecap:round;stroke-linejoin:round;stroke-miterlimit:4;stroke-dasharray:none;stroke-opacity:1"
           d="M 491.20605,305.28177 C 491.05865,304.89405 490.93792,304.43027 490.93781,304.25116 C 490.93773,304.07206 490.58531,303.18346 490.15476,302.27652 C 489.21827,300.30392 487.36774,298.51384 485.27415,297.55536 L 483.77389,296.86852 L 483.98925,294.76296 C 484.26068,292.10954 484.19472,289.67417 483.77788,286.95833 C 483.46361,284.91077 483.39047,284.76546 481.80156,283.03145 C 480.89409,282.0411 479.79586,281.04686 479.36108,280.82202 C 478.23009,280.23715 478.37869,279.65683 479.8231,279.01789 C 482.21917,277.95799 482.67588,278.00665 485.35671,279.60742 C 488.5518,281.51528 491.16716,283.45353 492.50545,284.90543 C 494.59165,287.16868 496.16531,291.47864 496.15314,294.89571 C 496.14423,297.39218 495.7839,298.85907 494.61012,301.17719 C 493.76924,302.83789 493.6589,303.27473 493.80338,304.37116 C 493.96827,305.62251 493.95797,305.64385 493.10712,305.81402 C 491.72028,306.09138 491.48929,306.0267 491.20605,305.28178 L 491.20605,305.28177 z"
           id="path2550" />
        <path
           style="opacity:1;fill:#000000;fill-opacity:1;stroke:#ffffb7;stroke-width:0.89940053;stroke-linecap:round;stroke-linejoin:round;stroke-miterlimit:4;stroke-dasharray:none;stroke-opacity:1"
           d="M 491.83019,282.90703 C 490.34145,281.51818 486.71655,279.01872 484.71904,278.00369 C 483.17734,277.22028 480.8732,274.62436 478.21035,270.6708 C 475.60349,266.8004 475.11552,265.67596 475.74044,264.97938 C 476.59176,264.03043 478.58478,263.62322 481.35765,263.83169 L 483.92981,264.02507 L 489.68806,267.86913 C 492.85509,269.98336 495.66009,271.7691 495.92134,271.83742 C 496.27986,271.93117 496.47744,271.6912 496.72671,270.85921 C 497.02455,269.8651 497.23812,269.67329 498.90017,268.90719 C 501.26224,267.81845 503.46601,267.41279 506.05381,267.59039 C 512.27125,268.01709 517.59676,272.85832 517.59676,278.08369 C 517.59676,280.0605 517.22992,280.97588 516.43554,280.98122 C 515.65601,280.98647 515.29284,281.22346 514.88922,281.99025 C 514.68321,282.38162 514.26148,282.62126 513.68004,282.67733 C 512.95265,282.74747 512.77194,282.89463 512.70486,283.47139 L 512.62252,284.17935 L 507.48304,282.83315 C 504.65634,282.09274 501.92712,281.38196 501.4181,281.25364 C 499.52448,280.77629 496.77332,281.65874 494.4713,283.48187 C 493.92048,283.91809 493.42578,284.27029 493.37197,284.26452 C 493.31813,284.25876 492.62434,283.64789 491.83019,282.90703 L 491.83019,282.90703 z"
           id="path2552" />
        <path
           style="opacity:1;fill:#000000;fill-opacity:1;stroke:#ffffb7;stroke-width:0.89940053;stroke-linecap:round;stroke-linejoin:round;stroke-miterlimit:4;stroke-dasharray:none;stroke-opacity:1"
           d="M 498.71927,305.60228 L 495.095,305.35523 L 494.92126,304.32682 C 494.78214,303.5034 494.91625,302.96409 495.59407,301.62132 C 497.90808,297.03732 497.77402,292.13877 495.19441,287.01635 C 494.64222,285.91984 494.29939,284.94722 494.43255,284.85497 C 497.53299,282.70724 497.57905,282.68349 499.30101,282.34463 C 499.98911,282.20922 500.8866,282.2649 501.7745,282.49807 C 508.15396,284.17335 513.77052,285.60335 514.55066,285.75093 C 515.06709,285.84862 515.89363,286.23671 516.38744,286.61336 C 516.88121,286.98999 517.49818,287.29816 517.75845,287.29816 C 518.19944,287.29816 518.20068,287.33234 517.77678,287.80075 C 517.17575,288.46488 517.1769,290.92356 517.7793,293.18427 L 518.23663,294.9007 L 517.39031,296.13083 C 515.6211,298.70229 513.7224,300.03945 506.8783,303.53396 L 502.34357,305.84934 L 498.71927,305.60228 z"
           id="path2554" />
        <path
           style="opacity:1;fill:#000000;fill-opacity:1;stroke:#ffffb7;stroke-width:0.89940053;stroke-linecap:round;stroke-linejoin:round;stroke-miterlimit:4;stroke-dasharray:none;stroke-opacity:1"
           d="M 519.03562,293.50669 C 518.84887,292.8085 518.69609,291.38228 518.69609,290.33731 C 518.69609,288.61213 518.76268,288.38499 519.42025,287.86777 C 519.81851,287.55448 520.31087,287.29816 520.51433,287.29816 C 520.71781,287.29816 520.9554,286.95805 521.04233,286.54237 C 521.12926,286.12668 521.44081,285.25765 521.73464,284.61119 C 522.23829,283.50319 522.26891,282.73142 522.26891,271.14969 L 522.26891,258.86359 L 523.78989,245.52893 L 525.31089,232.19428 L 528.9046,220.10166 C 530.88114,213.45072 532.62357,207.76169 532.77668,207.45937 C 532.92979,207.15706 533.93648,205.52269 535.01376,203.82743 L 536.97244,200.74516 L 543.95579,200.73557 L 550.93917,200.72598 L 557.97224,203.37655 C 563.16494,205.33354 567.59433,207.2821 574.89929,210.82304 C 585.69003,216.05365 603.30984,223.3556 607.93144,224.51214 C 610.74605,225.21649 614.42337,226.84133 617.00283,228.52038 C 618.86914,229.73518 618.96126,229.90961 620.06765,234.32094 L 620.60105,236.4476 L 618.61967,237.54134 L 616.63829,238.63508 L 613.77031,237.7183 C 608.07075,235.89639 600.24878,232.58268 589.32799,227.36353 C 578.73944,222.30315 577.83618,221.81138 570.78379,217.26704 C 561.24398,211.11991 555.74423,208.1059 550.1042,205.93409 L 545.64667,204.21763 L 544.47014,204.67309 C 543.82302,204.92359 543.12569,205.23564 542.9205,205.36652 C 542.71531,205.49741 541.75188,208.61901 540.77952,212.30341 C 538.94653,219.24891 538.24337,223.42116 536.82513,235.7671 L 536.22522,240.98891 L 536.9955,248.98853 L 537.76574,256.98815 L 536.74026,267.53971 C 535.92217,275.95701 535.56728,278.60628 534.98576,280.6374 L 534.25679,283.18352 L 530.11796,287.5748 C 525.42866,292.55015 522.90688,294.43677 520.6568,294.65298 L 519.37515,294.77613 L 519.03562,293.50669 z"
           id="path2556" />
        <path
           style="opacity:1;fill:#000000;fill-opacity:1;stroke:#ffffb7;stroke-width:0.89940053;stroke-linecap:round;stroke-linejoin:round;stroke-miterlimit:4;stroke-dasharray:none;stroke-opacity:1"
           d="M 459.46973,273.4073 C 457.35352,273.06027 455.61098,272.76637 455.5974,272.75419 C 455.58382,272.74202 455.49274,269.6711 455.39499,265.92994 C 455.21761,259.14008 454.87201,254.23823 453.82066,243.59982 C 452.5782,231.02741 452.17192,225.55684 452.00391,219.13728 L 451.82763,212.40142 L 453.45002,211.57939 C 455.44621,210.56796 457.25959,210.47586 458.41897,211.32703 C 458.8457,211.64034 459.62776,212.53212 460.15681,213.30875 C 460.95756,214.48422 461.75155,215.1099 464.89588,217.04319 C 469.21801,219.70064 470.40121,220.56584 472.55477,222.64354 L 474.09686,224.13132 L 473.13445,226.4391 L 472.17207,228.74688 L 470.35565,227.14589 C 462.46892,220.19455 460.57404,218.59008 460.25122,218.59008 C 459.4871,218.59008 460.10979,223.98008 462.34316,236.69845 C 463.5229,243.41671 464.16695,248.072 464.70474,253.76862 C 465.46921,261.86582 465.47047,262.13033 464.78444,270.32726 C 464.4857,273.89666 464.43625,274.10432 463.89277,274.07223 C 463.5763,274.05355 461.58594,273.75432 459.46973,273.40729 L 459.46973,273.4073 z"
           id="path2558" />
        <path
           style="opacity:1;fill:#000000;fill-opacity:1;stroke:#ffffb7;stroke-width:0.89940053;stroke-linecap:round;stroke-linejoin:round;stroke-miterlimit:4;stroke-dasharray:none;stroke-opacity:1"
           d="M 518.76026,282.01371 C 518.28827,281.78621 518.18391,281.57428 518.32952,281.13911 C 520.26896,275.34286 515.71265,268.69862 508.50531,266.81306 C 507.22151,266.47718 506.06713,266.38832 504.2674,266.4868 C 501.92101,266.61518 500.9547,266.8762 497.35624,268.35359 C 496.56239,268.67952 496.2902,268.6243 494.04061,267.68096 C 492.16254,266.89339 490.82334,266.04314 488.30951,264.0422 C 481.12877,258.3266 475.44705,251.78446 473.41992,246.89781 C 472.25652,244.09323 472.04174,240.38457 472.6749,234.03236 C 473.04972,230.27191 473.28011,229.07475 473.95427,227.38472 C 474.40651,226.25103 474.93696,225.13796 475.13306,224.91123 C 475.32915,224.68449 476.06751,223.0813 476.77389,221.34858 C 477.98604,218.37522 480.4003,213.43433 481.55913,211.55536 C 481.96489,210.89747 483.10415,210.19673 486.57971,208.46734 C 494.11116,204.7198 499.89369,202.90205 508.32922,201.63037 C 512.88006,200.94431 524.59286,200.96153 529.96421,201.66218 C 532.156,201.94808 534.09327,202.25633 534.26927,202.34719 C 534.47872,202.45534 534.07939,203.29185 533.11294,204.76937 C 531.68313,206.95527 531.51966,207.41831 527.92202,219.47308 L 524.20738,231.91983 L 522.6885,245.33378 L 521.16958,258.74774 L 521.16958,270.54946 L 521.16958,282.35117 L 520.27638,282.33257 C 519.78511,282.32234 519.10287,282.17886 518.76026,282.01371 L 518.76026,282.01371 z"
           id="path2560" />
        <path
           style="opacity:1;fill:#000000;fill-opacity:1;stroke:#ffffb7;stroke-width:0.89940053;stroke-linecap:round;stroke-linejoin:round;stroke-miterlimit:4;stroke-dasharray:none;stroke-opacity:1"
           d="M 535.91029,281.31839 C 536.01149,280.9039 536.25394,280.10529 536.4491,279.5437 C 536.64423,278.98212 537.26964,273.69107 537.8389,267.78582 L 538.87392,257.04901 L 538.09713,249.11483 C 537.22221,240.17812 537.15756,241.83179 538.93034,227.79696 C 539.77457,221.11309 540.11932,219.27084 541.55318,213.78052 C 542.46114,210.30389 543.24961,207.41333 543.30534,207.35705 C 543.57135,207.08831 549.52238,212.12652 552.15222,214.84694 C 557.6168,220.49971 561.05074,226.57292 562.94665,233.93764 C 564.59754,240.35071 564.43953,250.2034 562.55592,258.30335 C 562.02079,260.60451 561.58318,261.63682 559.86627,264.64806 C 558.73847,266.62606 557.7408,268.43971 557.64923,268.67837 C 557.39402,269.34337 552.6353,273.39564 550.12781,275.08316 C 547.39455,276.92264 543.48475,278.99418 540.54526,280.16032 C 539.336,280.64006 537.75703,281.26644 537.03645,281.55229 L 535.72629,282.07201 L 535.91029,281.31839 z"
           id="path2562" />
        <path
           style="opacity:1;fill:#000000;fill-opacity:1;stroke:#ffffb7;stroke-width:0.89940053;stroke-linecap:round;stroke-linejoin:round;stroke-miterlimit:4;stroke-dasharray:none;stroke-opacity:1"
           d="M 495.63895,318.38955 C 494.99933,318.27495 494.39965,318.10483 494.30633,318.01151 C 494.213,317.91818 494.51989,316.84803 494.9883,315.63339 C 495.45672,314.41874 495.83996,313.25742 495.83996,313.05265 C 495.83996,312.84788 495.05991,311.99122 494.1065,311.14898 C 492.68194,309.89051 492.32246,309.39661 492.08923,308.37741 C 491.81086,307.16092 491.81956,307.13437 492.54399,306.98949 C 495.90265,306.31775 498.57544,306.49302 507.78411,307.98885 L 513.54453,308.92456 L 515.20458,308.24885 C 517.63782,307.25845 519.64042,307.14696 521.67461,307.88867 L 523.32993,308.49223 L 527.65517,305.09438 C 549.4068,288.00661 564.1685,278.83994 578.97673,273.22489 C 584.74709,271.03686 587.05898,270.67703 590.15889,271.48445 C 591.22615,271.76245 598.27854,275.62436 613.09642,284.04514 L 634.49286,296.20442 L 636.82893,296.30118 C 639.98992,296.43207 640.25482,296.56793 638.75611,297.28954 C 636.81109,298.22604 636.98487,298.57299 640.14316,300.05856 C 644.03756,301.89036 647.44235,302.998 655.40865,305.02463 C 660.8751,306.4153 662.61601,306.756 663.79104,306.66513 C 664.60671,306.60205 666.41806,306.49347 667.81627,306.42386 L 670.35847,306.29728 L 670.36268,307.03522 C 670.37114,308.5193 670.45476,308.54131 675.34192,308.34623 C 685.56549,307.93812 708.4729,305.89238 708.99808,305.34057 C 709.16333,305.16693 709.63159,304.08847 710.03865,302.94403 C 710.75302,300.93551 712.04281,298.65934 712.3133,298.92983 C 712.3856,299.00213 712.14106,299.66104 711.76987,300.39407 C 710.44345,303.01338 710.25626,304.16614 710.41228,308.75443 C 710.5663,313.28435 710.79053,314.15451 712.00985,314.95344 C 713.04908,315.63435 712.61264,315.72155 711.36108,315.08306 C 710.22528,314.50361 709.25845,313.48395 708.96342,312.5544 C 708.54738,311.24358 703.79731,309.8344 699.79482,309.8344 C 697.88248,309.8344 697.08193,310.01159 693.53079,311.2208 L 689.45931,312.60718 L 687.81032,312.19955 C 685.50077,311.62862 681.6909,311.15525 680.23872,311.25879 L 679.01569,311.34598 L 678.9312,312.66908 C 678.88473,313.39678 678.76106,313.94685 678.65637,313.89146 C 674.87897,311.89286 671.77177,311.00246 669.86236,311.37146 C 668.62173,311.61121 668.56878,311.66049 668.48676,312.65143 C 668.43984,313.21828 668.31521,313.68206 668.2098,313.68206 C 668.10438,313.68206 664.3534,312.7603 659.87427,311.63371 C 650.88588,309.37294 644.48347,307.35035 639.38327,305.16038 C 637.53826,304.36815 635.85007,303.78852 635.63172,303.87231 C 635.41336,303.95609 635.15285,304.50919 635.0528,305.1014 L 634.87088,306.17815 L 631.10905,303.92519 C 629.04004,302.68605 623.81018,299.74528 619.48714,297.39014 C 604.34635,289.14162 598.63924,285.21648 592.26179,278.66555 L 590.41287,276.76633 L 588.26762,277.01655 L 586.12237,277.26678 L 586.21321,278.67454 L 586.30406,280.0823 L 584.39137,279.94544 C 582.66169,279.82168 582.32254,279.88794 580.84662,280.63795 C 579.94899,281.09409 577.86246,282.39218 576.2099,283.52259 C 574.55734,284.65299 572.81362,285.77728 572.33495,286.02099 C 571.76763,286.30983 570.72656,287.54218 569.34464,289.56074 C 563.60467,297.94502 557.18062,303.6638 546.61754,309.79272 L 543.66541,311.50561 L 531.36435,312.95133 C 519.83772,314.30601 518.99408,314.44198 517.96396,315.11107 C 516.43469,316.10436 515.76121,316.27094 508.75044,317.38994 C 502.41743,318.40075 497.70621,318.75994 495.63894,318.38955 L 495.63895,318.38955 z"
           id="path2564" />
        <path
           style="opacity:1;fill:#000000;fill-opacity:1;stroke:#ffffb7;stroke-width:0.89940053;stroke-linecap:round;stroke-linejoin:round;stroke-miterlimit:4;stroke-dasharray:none;stroke-opacity:1"
           d="M 559.87589,267.07393 C 559.87589,266.85195 561.77728,263.42 562.4048,262.50934 C 562.68563,262.10179 564.11755,260.93822 565.58684,259.92363 C 578.07566,251.29969 586.35644,243.76401 593.9439,234.11811 C 594.8951,232.90885 595.77078,231.88178 595.88984,231.83575 C 596.00889,231.78971 597.07546,232.23521 598.25998,232.82575 C 599.44449,233.41629 601.00528,234.12165 601.72838,234.39321 C 602.45148,234.66476 603.00802,234.98852 602.96513,235.11266 C 602.92224,235.2368 601.06951,237.30967 598.84796,239.71903 C 593.98598,244.99204 589.19821,249.40488 584.74821,252.7146 C 582.93432,254.06369 580.6788,255.78651 579.73596,256.54307 C 575.44889,259.98311 569.23305,263.49779 562.57106,266.24879 C 560.08083,267.27711 559.87589,267.33985 559.87589,267.07393 z"
           id="path2566" />
        <path
           style="opacity:1;fill:#000000;fill-opacity:1;stroke:#ffffb7;stroke-width:0.89940053;stroke-linecap:round;stroke-linejoin:round;stroke-miterlimit:4;stroke-dasharray:none;stroke-opacity:1"
           d="M 592.85576,217.64786 C 587.77116,215.59753 580.79716,212.48186 575.12908,209.72836 C 568.28082,206.40155 563.82451,204.4461 558.4462,202.40783 L 551.10763,199.62665 L 543.83129,199.62665 L 536.55498,199.62665 L 535.89088,200.47522 L 535.22677,201.3238 L 532.36684,200.90149 C 524.74356,199.77579 515.32707,199.65119 508.34483,200.58362 C 500.6133,201.61612 490.94268,204.67177 485.16244,207.90863 C 484.35358,208.36158 483.62111,208.6615 483.53474,208.57512 C 483.32514,208.36552 485.57557,205.08507 488.25736,201.69095 C 490.94524,198.28911 496.21795,193.01837 499.68762,190.26496 C 505.70923,185.4864 511.44333,181.93312 519.61296,177.9177 C 524.76004,175.38788 525.33682,175.17104 528.68242,174.50799 C 535.94378,173.06889 542.70913,172.15392 550.13748,171.60635 C 553.27328,171.3752 554.64857,171.40099 557.42054,171.74295 C 573.97406,173.78503 586.6609,178.86243 596.46323,187.3682 C 599.34488,189.8687 601.27974,192.36107 602.88595,195.64159 C 604.85269,199.65842 605.35797,202.01115 605.33547,207.04713 C 605.31842,210.8671 605.23898,211.56247 604.56631,213.78052 C 603.83747,216.18375 602.33228,219.6258 601.59956,220.56483 C 601.26897,220.98851 600.52353,220.73984 592.85576,217.64786 z"
           id="path2568" />
        <path
           style="opacity:1;fill:#000000;fill-opacity:1;stroke:#ffffb7;stroke-width:0.89940053;stroke-linecap:round;stroke-linejoin:round;stroke-miterlimit:4;stroke-dasharray:none;stroke-opacity:1"
           d="M 563.44871,259.33216 C 563.44871,259.06663 563.57338,258.41734 563.72575,257.88929 C 565.03293,253.35926 565.55531,242.33792 564.70535,237.22159 C 562.78183,225.64303 556.60452,215.84417 546.39248,208.17246 C 545.11679,207.2141 544.03649,206.33555 543.99184,206.22013 C 543.94717,206.10471 544.29123,205.8776 544.75641,205.71544 C 545.50527,205.45439 546.08726,205.60658 549.83532,207.0436 C 552.16355,207.93626 554.60216,208.93857 555.25447,209.27098 C 558.46469,210.90684 564.51906,214.53026 570.59435,218.45158 C 576.46389,222.24011 578.42077,223.32394 585.84754,226.89972 C 590.53343,229.15586 594.45413,231.0848 594.56021,231.18627 C 594.88547,231.49739 589.90969,237.46815 585.84754,241.64115 C 580.93567,246.68706 576.00527,251.00385 570.73176,254.8757 C 568.47016,256.53618 563.71504,259.81493 563.56846,259.81493 C 563.5026,259.81493 563.44871,259.59768 563.44871,259.33216 L 563.44871,259.33216 z"
           id="path2570" />
        <path
           style="opacity:1;fill:#000000;fill-opacity:1;stroke:#ffffb7;stroke-width:0.89940053;stroke-linecap:round;stroke-linejoin:round;stroke-miterlimit:4;stroke-dasharray:none;stroke-opacity:1"
           d="M 608.93345,223.74936 C 606.49869,223.05607 603.27963,221.94985 602.77585,221.63334 C 602.45447,221.43143 602.4892,221.22214 602.98296,220.38528 C 607.62194,212.52279 607.70878,201.68754 603.19613,193.78775 C 601.41719,190.67356 599.65831,188.62474 596.566,186.06466 C 587.98092,178.9572 578.90096,174.7881 566.22566,172.13375 L 562.4868,171.35078 L 564.84745,171.33485 C 571.8374,171.28769 584.16769,173.18069 592.71835,175.61372 C 603.81869,178.77224 616.73768,186.26454 626.62299,195.27653 C 627.98874,196.52162 628.16925,196.83783 629.07199,199.56655 C 631.38251,206.55051 630.19012,212.00361 625.6882,215.04148 C 622.62307,217.10981 618.09023,219.07781 614.38502,219.9489 C 612.96581,220.28256 612.96577,220.2826 612.04895,222.32176 C 611.54469,223.44333 611.07027,224.34661 610.99469,224.32907 C 610.91912,224.31152 609.99156,224.05066 608.93345,223.74936 L 608.93345,223.74936 z"
           id="path2572" />
        <path
           style="opacity:1;fill:#000000;fill-opacity:1;stroke:#ffffb7;stroke-width:0.89940053;stroke-linecap:round;stroke-linejoin:round;stroke-miterlimit:4;stroke-dasharray:none;stroke-opacity:1"
           d="M 643.69974,237.12476 C 632.43848,236.78013 622.89985,236.48826 622.50277,236.47617 C 621.85159,236.45633 621.73855,236.28645 621.34984,234.74336 C 621.07258,233.64267 621.01647,232.97223 621.19251,232.86343 C 621.343,232.77041 625.26287,232.61302 629.90332,232.51366 C 644.4375,232.20246 652.77221,231.42656 661.49033,229.57315 C 662.88591,229.27646 664.09173,229.03371 664.16995,229.03371 C 664.24817,229.03371 664.31216,229.59413 664.31216,230.27908 C 664.31216,231.16165 664.43892,231.57309 664.74729,231.69143 C 664.98661,231.78325 670.27369,231.38871 676.49635,230.81464 L 687.81032,229.77088 L 698.80361,226.78953 C 704.84992,225.14978 710.04565,223.70143 710.3497,223.57097 C 710.73763,223.40452 711.08947,222.69824 711.52947,221.20269 C 711.87431,220.03059 712.21427,219.12942 712.28493,219.20009 C 712.35562,219.27076 712.21194,220.30297 711.96563,221.49387 C 711.68682,222.84214 711.57092,224.32031 711.65851,225.41144 C 711.78499,226.98705 711.90599,227.27312 712.85859,228.24868 C 713.44126,228.84539 714.64921,229.699 715.54288,230.14558 C 716.45117,230.59945 716.92526,230.95754 716.61788,230.95754 C 715.50751,230.95754 713.37195,230.1313 711.94862,229.15101 L 710.48701,228.14435 L 708.35555,228.34052 C 703.43195,228.79369 699.15705,229.58271 696.40872,230.54558 C 693.28762,231.63903 688.03992,232.55482 680.52726,233.31711 C 676.34415,233.74156 675.86262,233.84826 674.31713,234.69325 L 672.64175,235.60927 L 668.28414,235.36265 C 665.88747,235.22702 663.82781,235.17707 663.70711,235.25167 C 663.42923,235.4234 663.41849,236.17687 663.69379,236.18674 C 663.80716,236.1908 664.33277,236.55851 664.86182,237.00385 L 665.82374,237.81357 L 664.99924,237.78247 C 664.54577,237.76537 654.96099,237.4694 643.69974,237.12476 L 643.69974,237.12476 z"
           id="path2574" />
      </g>
      <path
         transform="matrix(3.4965033,0,0,3.4965033,65.353779,-137.90806)"
         sodipodi:nodetypes="csssssscccsssssssssssssssssssssssssssssccccccccccccccccccsssssssscccssssssssscccssssssssccccccssscccsssssssscccccssssssssssssscccccssscccssscccccsssssssssccccccssssssssccsssssssssssscccccccssssccssssscccccccssssssssssssccsscccssccssssssssscccscccsssssccsscccsssssccccccssssssssssssssccssssssscccssssssssccccccsscccccsssssssscccsssssscccssssssssssssccccccssscccccsscccsscccccccccccssssscccccsccccsssssscccsssssssssssssccssssssscccscccssccsssssssssscccsssccssssssccccccccssccsssssssccsssssssccsccccccccssssssssccccccccscccssccssssssssssssssssscccssssssssscccsssscccscccscccsssssssssssssssssssscccccsccsssssccsssccccccccsscccsssscccsssssssssccccccssssssscccscccccccsssscccsssssssscccscccssssssscccsssssssssssccscccsssccssssscccsssssssscccsscccsscccssscccsssssssccccccccscccccscc"
         id="path2576"
         d="M 124.60368,131.65225 C 124.52465,131.66615 124.42683,131.68591 124.31077,131.71473 C 124.20135,131.7419 123.92079,131.81258 123.67977,131.86926 C 122.72487,132.09382 122.41683,132.17843 121.9203,132.3504 C 121.57885,132.46867 121.18338,132.57845 120.59181,132.72716 C 120.06472,132.85966 119.94332,132.89163 118.58918,133.18178 C 117.24621,133.46954 117.23963,133.46508 117.1485,133.50283 C 116.92985,133.59342 116.88193,133.60763 116.88657,133.5612 L 116.90079,133.53578 L 116.86271,133.55261 C 116.81923,133.58261 116.6397,133.73777 116.58706,133.78937 C 116.45336,133.92038 116.40231,134.0107 116.286,134.27669 C 116.18205,134.5144 116.15034,134.64388 116.18748,134.76063 C 116.20245,134.80765 116.19739,134.85282 116.15956,134.96445 C 116.11392,135.09903 116.08325,135.13622 116.03619,135.13388 C 116.02688,135.13342 115.94946,135.09743 115.85244,135.05238 C 115.40536,134.84483 115.13397,134.7649 114.60979,134.71146 C 114.5181,134.70211 114.38431,134.6853 114.28794,134.67185 C 113.69269,134.58879 112.93775,134.60067 111.97418,134.70878 C 111.79751,134.7286 111.76469,134.73202 111.6574,134.76267 C 111.12444,134.91494 110.73793,135.06745 110.58881,135.18726 C 110.52813,135.23604 110.51658,135.29709 110.52029,135.36117 C 110.52194,135.3898 110.50293,135.50125 110.50197,135.59902 C 110.50104,135.69678 110.50351,135.7984 110.51466,135.83276 C 110.54972,135.94094 110.5117,136.0658 110.37048,136.19329 C 110.29441,136.26196 110.12738,136.37166 109.95674,136.47196 C 109.63193,136.66284 109.58445,136.69988 109.50493,136.76745 C 109.3583,136.89207 109.33865,136.98671 109.45111,137.06888 C 109.59859,137.17665 109.90416,137.29386 110.16684,137.32684 C 110.47568,137.3656 110.65061,137.36351 111.25825,137.32296 C 111.52333,137.30529 112.08382,137.26701 112.50904,137.23905 C 112.97128,137.20865 113.3346,137.17716 113.4096,137.16638 C 113.65852,137.13063 114.03227,137.04226 114.23349,136.97444 C 114.3472,136.93611 114.3829,136.93768 114.42892,136.98377 C 114.47712,137.03203 114.53778,137.07587 114.64618,137.1079 C 114.72236,137.13041 114.72425,137.13689 114.8345,137.12993 C 114.95832,137.12214 115.19376,137.11242 115.48021,137.10294 C 115.57617,137.09977 115.68424,137.08751 115.68986,137.08683 C 115.70106,137.08547 115.76066,136.92925 115.7513,136.92564 C 115.74813,136.92441 115.60573,136.94934 115.46549,136.97542 L 115.21066,137.02107 L 115.02944,136.9863 L 114.81726,136.95566 L 114.82182,136.89621 L 114.80255,136.82814 L 114.90966,136.79035 L 114.9858,136.75669 L 115.3645,136.69456 L 115.70512,136.64927 L 115.65487,136.58533 C 115.61052,136.53751 115.57739,136.51038 115.46858,136.45708 L 115.33965,136.38005 L 115.17771,136.41336 L 115.05385,136.42983 L 114.98227,136.40404 L 114.91069,136.37824 L 114.84165,136.39919 C 114.79609,136.40952 114.75482,136.41333 114.74876,136.41154 C 114.73214,136.40662 114.71233,136.19837 114.72898,136.19052 C 114.75659,136.17753 115.35529,135.99055 115.3884,135.98513 C 115.41694,135.98046 115.44341,135.98732 115.52446,136.04944 C 115.6037,136.1102 115.64135,136.13488 115.76555,136.18217 C 115.89956,136.23318 115.93178,136.24594 116.09499,136.36202 C 116.19415,136.43252 116.27191,136.49686 116.27418,136.50298 C 116.27999,136.51865 116.3507,136.49657 116.4813,136.44013 C 116.5923,136.39215 116.69395,136.33969 116.89045,136.22092 L 117.0189,136.145 L 117.02347,136.08553 C 117.02256,136.02334 117.03345,136.01701 117.06612,136.00923 C 117.07892,136.00619 117.3747,135.99191 117.71182,135.98223 C 118.26103,135.96648 118.36569,135.96221 118.71488,135.93125 C 118.92926,135.91224 119.12012,135.88899 119.14132,135.88632 C 119.17694,135.88184 119.17279,135.88746 119.16263,135.84818 C 119.15503,135.81881 119.148,135.79775 119.1672,135.78871 C 119.18764,135.77909 119.27153,135.77314 119.46975,135.76026 C 119.61797,135.75061 119.74441,135.73894 119.74132,135.73591 C 119.73825,135.73288 119.7342,135.72991 119.74844,135.7232 C 119.76781,135.71408 119.87141,135.70334 120.13678,135.6951 L 120.48704,135.68384 L 120.51548,135.63297 C 120.53507,135.60504 120.56895,135.57141 120.58199,135.56528 C 120.59827,135.5576 120.69367,135.5571 120.84646,135.55365 C 121.0231,135.54965 121.07188,135.54366 121.08708,135.53342 C 121.16397,135.4816 121.12243,135.48948 121.44902,135.44999 C 121.61775,135.42959 121.78086,135.40897 121.78964,135.4047 C 121.79842,135.40043 121.82439,135.38104 121.84194,135.36243 C 121.85947,135.34382 121.88248,135.32572 121.89421,135.32017 C 121.90596,135.31462 122.04624,135.29152 122.21098,135.26627 C 122.50129,135.2218 122.49695,135.21867 122.6374,135.22134 L 122.80898,135.22207 L 122.76126,135.20488 C 122.58639,135.12438 122.56491,135.11257 122.58208,135.0639 L 122.59629,135.03848 L 122.37242,135.08002 C 122.18715,135.11484 122.07927,135.14452 121.94144,135.18441 C 121.4001,135.34099 120.72089,135.46588 119.4789,135.64133 C 119.15652,135.68687 119.15001,135.67959 119.12152,135.6653 C 119.10547,135.65726 119.07041,135.64923 119.04995,135.6395 L 119.00224,135.62231 L 118.87128,135.65149 C 118.63584,135.71181 118.44935,135.74722 118.09966,135.80119 C 117.66698,135.86793 116.97665,135.96024 116.95393,135.95352 C 116.93092,135.94672 116.92922,135.85995 116.95597,135.84731 C 116.96784,135.8417 117.06727,135.82521 117.14888,135.80989 C 117.26555,135.788 117.31053,135.77781 117.34888,135.75976 C 117.38845,135.74113 117.4183,135.72539 117.58696,135.69279 C 117.84132,135.64361 118.03889,135.59118 118.12505,135.55062 C 118.15895,135.53466 118.17313,135.52192 118.17024,135.52107 C 118.16734,135.52021 118.14059,135.51935 118.08445,135.5207 L 117.96769,135.52445 L 117.69865,135.59554 L 117.42959,135.66664 L 117.37479,135.66214 C 117.345,135.65735 117.30592,135.65999 117.28897,135.66178 C 117.27203,135.66358 117.196,135.68109 117.08897,135.71192 C 116.98197,135.74276 116.86845,135.77608 116.85088,135.77889 C 116.82469,135.78308 116.80904,135.76695 116.70774,135.72731 C 116.6399,135.70074 116.5763,135.67917 116.5646,135.67571 C 116.55289,135.67225 116.5309,135.64726 116.5382,135.62036 C 116.56378,135.52641 116.51359,135.48228 116.26563,135.33879 C 116.20158,135.30172 116.16481,135.264 116.16765,135.25764 C 116.17052,135.25131 116.25641,135.15726 116.36718,135.05455 C 116.47795,134.95186 116.58682,134.8514 116.61186,134.8219 C 116.70275,134.71494 116.74605,134.55964 116.76522,134.34246 C 116.77376,134.24543 116.92293,133.97848 117.0495,133.83381 C 117.14792,133.72134 117.34971,133.56106 117.41551,133.53796 C 117.43126,133.53242 117.98694,133.41775 118.64197,133.29247 L 119.83034,133.06383 L 121.00654,132.75442 L 122.15178,132.44911 L 123.56148,132.13218 C 125.10882,131.7868 125.23219,131.75635 125.4235,131.67271 C 125.49177,131.64286 125.53861,131.62733 125.53771,131.62222 C 125.5331,131.59604 125.10175,131.59384 124.8514,131.61931 C 124.73882,131.63075 124.68268,131.63833 124.60368,131.65225 z M 100.47281,135.13164 L 100.30375,135.17766 C 100.10689,135.2306 99.963556,135.29345 99.923016,135.34599 C 99.908086,135.36534 99.902826,135.40103 99.904226,135.43089 C 99.906356,135.47608 99.881646,135.51434 99.752426,135.65118 C 99.574806,135.83926 99.524576,135.88901 99.474736,135.99414 L 99.463046,136.06634 L 99.627526,136.07977 L 99.830066,136.07638 L 99.879826,135.98736 C 100.09612,135.6123 100.15032,135.5238 100.17378,135.51275 C 100.22926,135.48662 100.46642,135.58683 100.9565,135.85597 C 101.2154,135.99815 101.40035,136.0941 101.65346,136.19882 C 102.01321,136.3477 102.01571,136.35226 102.48597,136.45303 C 102.69074,136.49692 102.72224,136.4945 102.76009,136.47543 C 102.78212,136.46433 102.91201,136.39709 103.04793,136.31945 C 103.18382,136.24182 103.27344,136.17235 103.27381,136.1717 C 103.27417,136.17106 103.14845,136.11997 102.96366,136.05993 C 102.62832,135.95093 102.39029,135.86606 101.92102,135.66886 C 101.36645,135.43582 101.09998,135.34647 100.78295,135.24341 L 100.47281,135.13164 z M 106.68112,134.58863 C 106.61549,134.60622 106.5468,134.63036 106.46691,134.6642 L 106.34558,134.72741 L 106.4009,134.88485 C 106.44107,134.96921 106.47736,135.05462 106.49682,135.07221 C 106.51629,135.08978 106.62297,135.21826 106.70748,135.36201 C 106.79198,135.50574 106.87197,135.62027 106.87751,135.6219 C 106.88889,135.62526 107.56112,135.50209 107.58009,135.49317 C 107.58682,135.49 107.56323,135.43194 107.53441,135.36976 C 107.50559,135.30758 107.41713,135.15395 107.32832,135.02049 C 107.23953,134.88701 107.14992,134.73012 107.12225,134.67122 C 107.06783,134.5553 107.03657,134.55056 106.86692,134.56392 C 106.80143,134.56908 106.74676,134.57103 106.68112,134.58863 z M 96.575636,136.30901 C 96.316946,136.34879 96.045816,136.39068 95.849216,136.42915 C 95.166774,136.56266 94.562634,136.71163 93.76333,136.93015 C 93.259739,137.06783 93.211863,137.07721 92.934861,137.18157 C 92.333653,137.40808 91.793748,137.63389 91.22614,137.87962 C 90.98653,137.98336 90.900764,138.0239 90.71697,138.12388 C 89.6194,138.72093 88.934142,139.24004 88.658431,139.70418 C 88.577379,139.84064 88.586517,139.9436 88.638107,140.04825 C 88.701275,140.17638 88.833883,138.60852 89.093802,138.68408 C 89.29096,138.74138 89.265339,140.36813 89.427956,140.37875 C 89.604154,140.39024 89.903243,140.38352 90.004624,140.37269 C 90.050367,140.36781 90.079419,140.34813 90.477756,140.03903 C 90.7419,139.83408 91.103313,139.54339 91.373769,139.30781 C 91.700535,139.02319 91.924292,138.84638 92.210383,138.63156 L 92.607369,138.33159 L 93.116537,138.08732 L 93.656671,137.83893 L 93.749568,137.82658 L 93.842465,137.81422 L 94.016078,137.70875 C 94.512034,137.43098 95.209964,137.11231 95.764926,136.88765 C 96.379416,136.63889 97.223846,136.35239 97.809686,136.20378 C 97.891676,136.18299 97.976896,136.16202 97.978736,136.15775 C 97.983216,136.14742 97.625746,136.17815 97.256876,136.21843 C 97.072026,136.23861 96.834316,136.26924 96.575636,136.30901 z M 98.250326,136.13342 C 98.187106,136.13733 98.091426,136.16612 97.750306,136.25876 C 97.011086,136.45951 96.490526,136.63565 95.812636,136.90484 C 95.446926,137.05008 94.577394,137.45159 94.223199,137.64589 C 94.078669,137.72518 93.974446,137.79036 93.966327,137.79775 C 93.956659,137.80656 94.022897,137.80502 94.16887,137.79436 C 94.384833,137.7786 94.407094,137.78617 95.286664,137.84584 L 96.201926,137.90069 L 97.005506,138.05281 L 97.809056,138.20492 L 98.395866,138.38586 L 99.013656,138.56268 L 99.089776,138.52902 C 99.124946,138.51207 99.163736,138.48414 99.180146,138.46991 C 99.202756,138.45032 99.196296,138.45022 99.163406,138.44859 C 98.725246,138.42707 98.699086,138.17541 99.125876,137.90035 C 99.201896,137.85135 99.308896,137.80031 99.444666,137.74025 C 99.621686,137.66195 99.681166,137.63516 100.0183,137.5345 C 100.09268,137.51229 100.11499,137.50341 100.22999,137.41218 C 100.326,137.33602 100.37797,137.27452 100.45794,137.15823 C 100.68633,136.82603 100.76139,136.53344 100.65798,136.39004 C 100.59866,136.30775 100.43332,136.24971 100.06154,136.17509 C 99.841456,136.13091 99.772806,136.11637 99.637166,136.11381 C 99.546166,136.11208 99.429526,136.11804 99.403656,136.12131 C 99.377776,136.12458 99.255496,136.12643 99.115316,136.12433 C 98.874786,136.12073 98.430846,136.12226 98.250326,136.13342 z M 106.44708,135.16122 C 106.44077,135.16666 106.4417,135.17162 106.43286,135.18665 C 106.41702,135.21354 106.32878,135.31997 106.25011,135.41105 C 106.09276,135.5932 106.03914,135.66511 106.04144,135.73307 L 106.04397,135.77982 L 106.39882,135.7091 C 106.58707,135.67414 106.73991,135.65414 106.74654,135.65109 C 106.75317,135.64804 106.70105,135.53708 106.62422,135.40839 C 106.49326,135.18901 106.46597,135.14489 106.44708,135.16122 z M 104.64748,135.7654 C 104.34039,135.81008 104.02464,135.90213 103.69516,136.03329 C 103.50624,136.10847 103.47188,136.12115 103.14082,136.30709 C 102.94932,136.41466 102.8002,136.50704 102.79358,136.51807 C 102.78696,136.5291 102.61055,136.66389 102.43466,136.80121 C 102.25878,136.93854 102.10095,137.06236 102.07576,137.08436 C 102.00608,137.14519 101.97882,137.26324 102.01687,137.2923 C 102.10481,137.35948 102.32434,137.43512 102.54884,137.46874 C 102.58731,137.47452 102.57812,137.48488 102.5133,137.53233 C 102.39405,137.61961 102.35458,137.69686 102.38536,137.76122 C 102.40036,137.79254 102.44168,137.82335 102.45948,137.83375 L 102.47622,137.85508 L 102.66659,137.7709 C 102.7623,137.72507 102.93231,137.65271 103.04732,137.60257 C 103.19605,137.53771 103.34127,137.45548 103.57071,137.33287 L 103.89661,137.16006 L 104.11288,136.97827 C 104.28804,136.83964 104.39556,136.75104 104.51444,136.61884 C 104.72295,136.38696 104.95276,136.20496 105.18709,136.0821 C 105.27693,136.035 105.38514,135.98333 105.42262,135.96837 C 105.48891,135.94193 105.48084,135.93581 105.43431,135.8962 C 105.36695,135.83885 105.19282,135.7934 104.95968,135.77098 C 104.79931,135.75555 104.76231,135.74869 104.64748,135.7654 z M 107.74455,135.50661 C 107.59943,135.52166 105.94093,135.83209 105.79168,135.87223 C 105.33449,135.99515 104.9422,136.24331 104.60023,136.6192 C 104.47055,136.7617 104.36618,136.85275 104.19156,136.99134 L 103.97531,137.17313 L 103.57323,137.37961 C 103.23081,137.56057 103.17453,137.59071 102.98083,137.67027 C 102.85389,137.72242 102.70062,137.79737 102.63105,137.83448 C 102.51136,137.89833 102.4957,137.89463 102.52648,137.91902 C 102.54358,137.93257 102.57763,137.95355 102.59094,137.95752 C 102.60427,137.96152 102.60678,137.98086 102.59348,138.00428 C 102.58017,138.02769 102.56354,138.05743 102.55083,138.08058 L 102.5224,138.13143 L 102.72496,138.12804 C 102.88449,138.13142 103.02737,138.12632 103.28486,138.10068 L 103.61839,138.06809 L 103.992,137.91249 C 104.20703,137.82712 104.40463,137.76233 104.42045,137.76135 C 104.43628,137.76036 104.50379,137.76039 104.56107,137.76619 C 104.62816,137.77299 104.69177,137.77624 104.73265,137.76691 C 104.82688,137.74539 105.092,137.61362 105.31795,137.48899 C 105.4303,137.42702 105.58328,137.35203 105.67483,137.31204 C 105.78095,137.2657 105.84396,137.23487 105.83424,137.23199 C 105.79797,137.22128 105.70305,137.11647 105.70024,137.06147 C 105.69548,136.96835 105.78226,136.81201 105.89213,136.71815 C 106.05185,136.58172 106.17994,136.51483 106.5272,136.3512 C 106.80421,136.22067 106.85106,136.206 107.08408,136.12413 C 107.30532,136.04641 107.3712,136.02009 107.56736,135.97747 C 107.77913,135.93147 107.80827,135.9265 107.94352,135.8686 C 108.15031,135.78008 108.31308,135.66574 108.31919,135.60677 C 108.32315,135.56869 108.3073,135.56434 108.19025,135.52974 C 108.05562,135.48996 107.93616,135.48675 107.74455,135.50661 z M 108.49736,135.44182 C 108.42697,135.45158 108.36187,135.46268 108.33544,135.47512 C 108.30901,135.48757 108.32857,135.49792 108.36894,135.51775 C 108.48222,135.57342 108.39447,135.68644 108.14354,135.81846 C 107.9651,135.91234 107.86842,135.94881 107.60797,136.00738 C 107.41478,136.05082 107.32044,136.07436 107.1318,136.14131 C 106.70456,136.29301 106.29692,136.4894 106.07539,136.64669 C 105.94062,136.74239 105.84248,136.85833 105.81903,136.95151 C 105.77946,137.10866 105.84113,137.18561 106.02966,137.24133 L 106.1251,137.27572 L 106.33475,137.25962 C 106.45017,137.24848 106.62956,137.21503 106.71345,137.19748 C 106.93823,137.15046 107.24391,137.1087 107.39469,137.10689 C 107.53129,137.10526 107.72044,137.13796 107.79521,137.15958 C 107.85394,137.17657 108.14943,137.13901 108.31452,137.1023 C 108.38763,137.08603 108.51435,137.06343 108.57646,137.04392 C 108.68828,137.00881 109.02329,136.85934 109.10948,136.80827 C 109.19299,136.75877 109.43963,136.59558 109.52321,136.5296 C 109.6306,136.44482 109.62196,136.42315 109.61309,136.31754 C 109.60041,136.16681 109.73596,136.05965 110.16439,135.84403 L 110.36187,135.74714 L 110.29488,135.66188 C 110.25361,135.61766 110.17275,135.55011 110.12278,135.50819 L 110.02482,135.42705 L 109.77457,135.41325 C 109.45082,135.39292 109.24306,135.3907 109.03343,135.40586 C 108.9398,135.41263 108.81334,135.41979 108.73798,135.4216 C 108.66131,135.42343 108.56778,135.43207 108.49736,135.44182 z M 101.43362,136.74597 C 101.32312,136.76071 101.15783,136.81596 100.96709,136.91396 L 100.76964,137.01084 L 100.57265,137.26068 C 100.45108,137.40103 100.315,137.53422 100.29954,137.5442 C 100.27831,137.55787 100.26741,137.56062 100.20663,137.55654 C 100.13401,137.55165 100.11183,137.55696 99.951796,137.60219 C 99.724396,137.66647 99.518936,137.73359 99.340096,137.82478 C 98.910396,138.04388 98.790326,138.30097 99.058316,138.38018 C 99.159706,138.41013 99.226756,138.41246 99.284716,138.38538 C 99.341616,138.3588 99.385136,138.34154 99.453776,138.33936 C 99.488806,138.33825 99.539626,138.32921 99.584736,138.31018 C 99.641156,138.28636 99.643176,138.29137 99.677636,138.29783 L 99.732466,138.3023 L 100.04873,138.09546 C 100.21606,137.98757 100.37268,137.89114 100.40306,137.87177 C 100.51612,137.79978 100.73986,137.72572 101.00056,137.67462 C 101.06294,137.6624 101.12792,137.64735 101.13153,137.64544 C 101.13515,137.6435 101.15448,137.60752 101.17418,137.56915 C 101.21107,137.49717 101.34464,137.33529 101.43765,137.2516 C 101.50945,137.187 101.54605,137.07161 101.53666,136.92061 C 101.52751,136.77279 101.51476,136.73516 101.43362,136.74597 z M 90.305271,138.29634 L 90.14587,138.37638 C 89.635767,138.61471 88.841507,139.0634 88.345247,139.39269 C 87.701007,139.82019 88.053092,137.58232 87.424955,139.43594 C 86.628281,141.7869 87.364086,139.07427 87.438472,139.1465 C 87.628848,139.33136 87.555603,139.49899 88.038389,139.39107 C 88.367093,139.3176 88.784042,139.82468 89.097833,139.71116 C 89.218026,139.66769 89.160307,140.75692 89.331482,140.75647 C 89.425632,140.75623 89.550619,139.50853 89.555207,139.50569 C 89.559797,139.50282 89.570101,140.72202 89.631496,140.68127 C 89.772782,140.58749 89.94873,140.45829 89.969086,140.43628 C 89.982074,140.42222 89.969186,140.419 89.890406,140.42319 C 89.150212,140.46268 88.582005,140.30475 88.504601,140.03069 C 88.474086,139.92266 88.524526,139.81882 88.617827,139.67426 C 88.876842,139.27295 89.301992,138.90506 90.086477,138.43136 L 90.305271,138.29634 z M 93.666316,137.87296 L 93.164252,138.10452 L 92.655083,138.34879 L 92.303281,138.61922 C 92.026504,138.82645 91.801409,139.01742 91.452451,139.32089 C 90.936976,139.76919 90.007856,140.48062 89.731503,140.6562 C 89.563194,140.76312 89.400212,140.90609 89.298979,141.01975 C 89.225729,141.102 89.210946,141.11924 89.356835,141.22394 L 89.445159,141.27105 L 89.645166,141.22093 L 89.852287,141.15806 L 89.994933,141.05669 C 90.315454,140.83417 90.710137,140.52033 91.235642,140.06775 C 91.745167,139.62895 91.802251,139.58263 92.081406,139.27256 C 92.459014,138.85315 92.702524,138.62279 93.000777,138.39699 L 93.217039,138.21522 L 93.348011,138.18602 C 93.407856,138.16769 93.464471,138.14915 93.486084,138.14411 C 93.507702,138.13908 93.727021,138.14913 93.986607,138.17174 C 94.475964,138.21432 94.759564,138.25619 95.495766,138.39481 L 95.810506,138.44713 L 96.154156,138.60155 L 96.504936,138.74324 L 97.120156,138.87331 C 97.611286,138.97291 97.784426,139.00182 97.930836,139.0127 L 98.095306,139.02614 L 98.628826,138.94344 C 99.224596,138.85849 99.518826,138.80493 99.693346,138.73127 L 99.769486,138.6976 L 99.735986,138.65496 C 99.713756,138.63799 99.646426,138.61922 99.592856,138.60337 C 99.504346,138.57723 99.502646,138.57528 99.428366,138.58992 C 99.383376,138.5988 99.343146,138.60805 99.328366,138.61499 C 99.313586,138.62196 99.263116,138.63067 99.235466,138.62735 C 99.207826,138.62402 99.156466,138.60954 99.101966,138.60979 C 99.008556,138.61021 98.968536,138.59955 98.374526,138.42401 L 97.725806,138.25131 L 96.922246,138.0992 L 96.149626,137.94297 L 95.265344,137.88399 C 94.780664,137.85078 94.352857,137.81987 94.326232,137.82053 C 94.299608,137.82119 94.134053,137.83336 93.968861,137.8445 L 93.666316,137.87296 z M 110.40247,135.77705 L 110.17404,135.87805 C 109.94996,135.99058 109.82914,136.0761 109.76741,136.144 C 109.71704,136.19941 109.72027,136.2242 109.72983,136.31378 C 109.73411,136.35378 109.71198,136.39671 109.70395,136.41139 C 109.69272,136.43191 109.7035,136.44555 109.76131,136.46262 C 109.83346,136.48395 109.87417,136.47898 109.90903,136.45476 C 109.91752,136.44885 109.9754,136.40878 110.04457,136.36611 C 110.39777,136.1482 110.52738,135.95624 110.41923,135.79836 L 110.40247,135.77705 z M 93.36476,138.20734 C 93.296983,138.22898 93.285092,138.24739 93.086569,138.39735 C 92.963249,138.49049 92.817378,138.59817 92.787052,138.6255 C 92.637789,138.76009 92.400227,139.01845 92.160086,139.28565 C 91.928082,139.5438 91.841423,139.62043 91.485407,139.92861 C 91.26078,140.12305 91.048277,140.29971 91.045773,140.30487 C 91.038107,140.32072 91.706296,140.23679 92.215363,140.16113 C 92.830911,140.06964 93.417591,139.9632 93.999192,139.84154 C 94.248614,139.78937 94.774374,139.67144 94.785004,139.66642 C 94.789794,139.66417 94.774774,139.66185 94.761154,139.65782 C 94.747524,139.6538 94.720624,139.64754 94.682474,139.64474 C 94.355198,139.62078 93.745568,139.47886 93.544892,139.37224 C 93.090758,139.13097 93.021586,138.76634 93.36983,138.30082 C 93.413335,138.24267 93.460332,138.19826 93.457658,138.19499 C 93.454981,138.1917 93.406865,138.19389 93.36476,138.20734 z M 93.550555,138.18264 C 93.517454,138.18766 93.336518,138.4752 93.285035,138.60637 C 93.178054,138.87894 93.25209,139.0851 93.492107,139.26155 C 93.701117,139.41522 94.237347,139.54861 94.789594,139.60696 C 94.946484,139.62353 95.018074,139.63494 95.297214,139.62185 C 95.480576,139.61326 95.628606,139.61011 95.647486,139.61059 C 95.700126,139.61194 96.274276,139.50461 96.542956,139.44443 C 96.835816,139.37884 97.214876,139.27212 97.488176,139.18927 C 97.600616,139.15519 97.759266,139.11755 97.826256,139.09724 L 97.933356,139.05944 L 97.878556,139.05496 C 97.849926,139.05215 97.811886,139.04785 97.768896,139.04601 C 97.725926,139.04417 97.412086,138.98561 97.067876,138.91558 L 96.421666,138.78962 L 96.078006,138.63522 C 95.683226,138.46984 95.772266,138.49351 94.923684,138.34141 C 94.519554,138.26897 94.398731,138.26126 94.013,138.22708 C 93.768747,138.20544 93.557485,138.18157 93.550555,138.18264 z M 101.9661,137.0754 C 101.94527,137.07349 101.90398,137.08472 101.83513,137.10458 C 101.60674,137.17045 101.58377,137.17829 101.47115,137.29423 C 101.33695,137.43241 101.25428,137.55259 101.23153,137.62035 C 101.1961,137.72601 101.30411,137.84196 101.48027,137.89333 C 101.60894,137.93087 101.70759,137.9469 101.91173,137.9419 C 102.058,137.93832 102.0853,137.93827 102.13103,137.95982 C 102.18325,137.98442 102.17726,137.98259 102.24779,137.95607 C 102.36274,137.91286 102.39385,137.90112 102.37622,137.88015 C 102.36704,137.86922 102.33768,137.86566 102.3285,137.86295 C 102.31933,137.86023 102.28638,137.84019 102.27114,137.81171 C 102.23799,137.74979 102.3033,137.65623 102.40619,137.57012 L 102.47269,137.50242 L 102.33919,137.48485 C 102.18339,137.45391 102.05937,137.41541 101.95035,137.36 C 101.86816,137.31821 101.88531,137.30449 101.91179,137.22386 C 101.9269,137.17783 101.9557,137.1277 101.97573,137.10943 C 102.00184,137.08565 101.98695,137.07729 101.9661,137.0754 z M 101.07923,137.68771 C 100.7439,137.76118 100.75263,137.75518 100.61018,137.80893 C 100.55326,137.8304 100.49622,137.86779 100.44368,137.90169 C 100.06625,138.14524 99.700826,138.36653 99.651736,138.39543 C 99.619236,138.41458 99.601786,138.44054 99.585226,138.46313 C 99.568696,138.48574 99.544736,138.50922 99.525846,138.51812 C 99.493796,138.5332 99.494876,138.53411 99.549696,138.52671 C 99.627426,138.51622 99.747046,138.55372 99.819246,138.60858 L 99.883706,138.6471 L 100.00046,138.64334 C 100.26086,138.62181 100.4648,138.57859 101.14113,138.39749 L 101.57922,138.2804 L 101.82187,138.15396 L 102.0955,138.02341 L 102.05488,137.9935 C 102.02275,137.97626 101.97755,137.98134 101.85946,137.98417 C 101.45628,137.99382 101.20486,137.9175 101.12949,137.75165 C 101.11335,137.71614 101.09364,137.68453 101.07923,137.68771 z M 112.5416,136.25773 C 112.71129,136.23149 112.80382,136.21966 112.93705,136.21691 C 113.19367,136.21163 113.34261,136.23902 113.44011,136.29128 C 113.57684,136.36458 113.52932,136.4971 113.3411,136.62226 C 113.25829,136.67733 113.04131,136.76535 112.89132,136.81155 C 112.54166,136.91924 112.14963,136.97801 111.83139,136.96425 C 111.71274,136.95913 111.56572,136.914 111.50701,136.8779 C 111.38004,136.79987 111.44048,136.66721 111.66796,136.53868 C 111.88318,136.41709 112.18008,136.31361 112.5416,136.25773 z M 112.52027,136.29588 C 112.37248,136.31857 112.23847,136.35484 112.0893,136.40026 C 111.98663,136.43154 111.92494,136.45055 111.79893,136.50951 C 111.66607,136.57166 111.67367,136.57388 111.62532,136.61498 C 111.47136,136.74584 111.53088,136.86322 111.78115,136.90031 C 112.0779,136.94429 112.53645,136.89528 112.91265,136.7734 C 113.03802,136.73278 113.185,136.66452 113.25531,136.62189 C 113.37816,136.54737 113.46238,136.45318 113.43805,136.39748 C 113.37848,136.26101 112.96364,136.22778 112.52027,136.29588 z M 115.36707,136.02328 C 115.35048,136.02669 114.86208,136.1799 114.84574,136.18676 C 114.83594,136.19088 114.81853,136.23903 114.81984,136.28439 L 114.80104,136.36928 L 114.89394,136.35692 C 114.97329,136.34345 114.98909,136.33506 115.06552,136.35764 L 115.1371,136.38344 L 115.26095,136.36697 L 115.38481,136.35051 L 115.54473,136.42341 C 115.68289,136.49129 115.70772,136.51087 115.77162,136.58158 C 115.81121,136.62537 115.85777,136.66241 115.86959,136.66271 C 115.89624,136.66339 115.87928,136.87981 115.85131,136.90057 C 115.84026,136.90876 115.80865,136.95586 115.79443,137.00231 C 115.77343,137.07087 115.7812,137.08067 115.80662,137.08307 C 115.83282,137.08554 115.83765,137.10173 115.79747,137.202 C 115.75047,137.31934 115.72653,137.43296 115.72232,137.54158 C 115.71956,137.61209 115.83009,138.07078 115.85274,138.07748 C 115.85571,138.07836 115.90928,138.05414 115.96697,138.02698 L 116.0812,137.97648 L 116.23602,137.95588 C 116.41384,137.93492 116.39736,137.94821 116.54313,137.86796 L 116.58833,137.83841 L 116.46904,137.79542 L 116.34264,137.76516 L 116.31115,137.6163 C 116.26068,137.47683 116.23977,137.45886 116.26703,137.23374 C 116.29492,137.00336 116.31194,136.98824 116.24879,136.75354 L 116.18129,136.51533 L 116.01885,136.39568 C 115.86659,136.28893 115.8259,136.26941 115.68942,136.21584 C 115.56428,136.16672 115.50682,136.14723 115.44119,136.09582 C 115.39653,136.06083 115.37105,136.02247 115.36707,136.02328 z M 106.81598,137.21917 C 106.71042,137.23845 106.59943,137.25731 106.59213,137.2607 C 106.58479,137.26409 106.48038,137.28049 106.3444,137.29365 C 106.06799,137.32037 106.06193,137.31639 105.8921,137.43617 C 105.47901,137.72751 105.40854,137.95968 105.65853,138.16172 C 105.70267,138.19739 105.75365,138.25006 105.76613,138.2769 C 105.81053,138.37221 105.94701,138.52476 106.02451,138.58391 C 106.14128,138.67304 106.22603,138.71473 106.39913,138.73419 C 106.8443,138.78425 107.3129,138.75078 108.01441,138.61358 C 108.28031,138.56157 108.62857,138.46664 110.04294,138.06135 C 110.8235,137.83767 111.47897,137.64742 111.5095,137.64269 C 111.65291,137.6205 112.06381,137.65413 112.22221,137.70094 C 112.26906,137.71479 112.31828,137.72567 112.32475,137.72262 C 112.33123,137.71957 112.34457,137.68678 112.3674,137.64632 C 112.3902,137.60588 112.40148,137.57406 112.41004,137.57003 C 112.43939,137.55621 112.65046,137.54826 112.72934,137.56289 C 112.79855,137.57572 112.80079,137.59198 112.84405,137.66534 C 112.87117,137.71133 112.91699,137.82435 112.96637,137.90804 C 113.19201,138.29034 113.37902,138.44035 113.7024,138.53996 L 113.87653,138.58744 L 113.91255,138.67682 C 113.99225,138.83248 114.12268,138.90477 114.3496,138.97184 C 114.4305,138.99574 114.49183,139.01465 114.49986,139.01071 C 114.50788,139.00678 114.5298,138.98848 114.52829,138.95985 C 114.52308,138.86136 114.60073,138.73222 114.68719,138.72684 C 114.7039,138.72579 114.7604,138.74855 114.80648,138.76984 C 115.00536,138.8617 115.47792,138.95496 115.96538,139.00417 C 116.15563,139.02338 116.76593,139.06262 116.79486,139.05868 C 116.80258,139.05762 116.81002,139.03664 116.82328,139.00781 C 116.83654,138.97899 116.86671,138.95663 116.88267,138.95282 C 116.9126,138.94572 116.98654,138.94206 117.39031,138.96772 L 117.64055,138.98153 L 117.74768,138.94375 C 117.80531,138.92081 117.86691,138.90543 117.88575,138.90185 C 117.91771,138.8958 117.98242,138.91749 118.07661,138.97064 C 118.08622,138.97606 118.12606,138.97392 118.13143,138.97512 C 118.13819,138.96461 118.15551,138.95207 118.17663,138.94557 C 118.20783,138.93598 118.25609,138.93699 118.38881,138.97621 L 118.53196,139.02779 L 118.58424,138.98553 C 118.62533,138.92946 118.64334,138.92361 118.72943,138.93091 C 118.76953,138.93433 118.8846,138.9365 118.9797,138.94473 L 119.14415,138.95818 L 119.21116,139.04343 C 119.25594,139.08464 119.31245,139.11074 119.31623,139.11185 C 119.32003,139.11297 119.44779,139.05233 119.58985,138.98131 L 119.83251,138.85487 L 119.99698,138.86831 C 120.06536,138.87283 120.11222,138.86292 120.1447,138.86043 C 120.11259,138.85879 119.96749,138.84388 119.81576,138.83355 C 119.66403,138.82323 119.46487,138.81905 119.39391,138.81901 C 119.32298,138.81898 119.10834,138.81015 118.8863,138.80413 C 118.29433,138.78803 118.00491,138.79194 117.60911,138.8327 C 117.34399,138.86 116.65556,138.84282 115.85981,138.78281 C 115.43357,138.75063 114.85837,138.69286 114.85622,138.68082 C 114.85369,138.66637 114.90958,138.65467 115.06335,138.61796 C 115.14313,138.59893 115.19977,138.57991 115.20142,138.57607 C 115.20309,138.57221 115.16367,138.5666 115.12275,138.56298 C 115.08182,138.55938 114.99574,138.55365 114.93442,138.54095 C 114.83151,138.51961 114.81662,138.50444 114.74103,138.42541 C 114.3374,138.00353 113.59493,137.55834 112.9527,137.3684 C 112.75554,137.31006 112.60424,137.30615 112.24,137.31014 C 111.76066,137.31539 111.37368,137.3495 110.69631,137.45654 C 110.29245,137.52037 110.24921,137.53184 109.91758,137.61894 C 108.83726,137.90269 108.05262,138.07192 107.49819,138.15253 C 107.00642,138.22401 106.59083,138.24042 106.39255,138.18183 C 106.30495,138.15593 106.32831,138.13467 106.49714,138.09731 C 106.55731,138.08397 106.67851,138.05499 106.76619,138.02621 C 106.97258,137.95848 107.45896,137.73828 107.7632,137.57583 L 107.96779,137.46621 L 108.04597,137.32635 L 108.16223,137.16964 L 107.97642,137.19435 C 107.8253,137.20776 107.79317,137.20454 107.6952,137.18465 C 107.46037,137.13695 107.20221,137.1486 106.81598,137.21917 z M 112.62586,136.51727 C 112.71112,136.51067 112.80421,136.50837 112.85225,136.52247 C 112.994,136.56406 112.90179,136.66859 112.66949,136.74688 C 112.53172,136.79331 112.33012,136.81228 112.2121,136.79592 C 112.11999,136.78314 112.07947,136.72769 112.13547,136.67663 C 112.16913,136.64595 112.28474,136.58851 112.37101,136.56291 C 112.45222,136.53882 112.54058,136.52384 112.62586,136.51727 z M 112.41873,136.58011 C 112.23104,136.62969 112.11812,136.72385 112.2644,136.75366 C 112.40976,136.78327 112.68708,136.72762 112.78117,136.64962 C 112.85206,136.59088 112.79661,136.54291 112.63549,136.55129 C 112.56233,136.55509 112.48131,136.56359 112.41873,136.58011 z M 102.36454,137.95232 C 102.08615,138.057 101.87893,138.15825 101.28682,138.49584 L 100.93958,138.7068 L 100.77054,138.75282 C 100.54301,138.82103 100.38528,138.89085 100.27558,138.97166 L 100.2162,139.02664 L 99.699396,139.13067 C 97.243176,139.61554 95.705326,139.98677 94.341807,140.40807 C 93.810477,140.57225 93.640216,140.64296 93.456476,140.76121 C 93.393214,140.80192 93.069773,141.09968 92.425422,141.73405 L 91.484726,142.64779 L 91.325324,142.72784 C 91.102451,142.83792 91.105852,142.84857 91.251714,142.80825 C 91.441018,142.75593 91.440949,142.7671 91.287745,142.89763 C 91.098844,143.05857 90.913613,143.18996 90.438955,143.4931 C 90.113241,143.70113 89.977142,143.77486 89.887142,143.81367 C 89.824661,143.84061 89.687679,143.90157 89.582557,143.94834 L 89.39219,144.0325 L 89.44701,144.03699 C 89.522511,144.05978 89.502819,144.06695 89.137851,144.23112 C 88.374372,144.57456 86.605675,145.33218 86.539228,145.34177 C 86.518319,145.34479 86.432052,145.33587 86.34379,145.33245 C 86.241224,145.32846 86.178895,145.3464 86.103176,145.35266 C 86.333857,145.347 86.406096,145.36074 86.630089,145.43563 C 86.851236,145.50955 86.880715,145.53138 86.83313,145.58519 C 86.842564,145.57798 86.85957,145.57886 86.871201,145.56835 C 86.923981,145.52073 86.937564,145.46949 86.911312,145.44531 C 86.874307,145.41121 87.16278,145.2276 87.453483,145.09072 C 87.592379,145.02532 87.645244,144.99632 87.96519,144.8932 L 88.348456,144.77161 L 88.438818,144.7125 C 88.577279,144.62488 88.82045,144.49502 88.931234,144.44692 L 89.045453,144.39643 L 89.117027,144.42223 C 89.15773,144.43166 89.198053,144.42701 89.202819,144.42259 C 89.374663,144.26312 89.549308,144.14453 89.706918,144.08482 C 89.809323,144.04603 89.804961,144.05203 89.861745,144.06424 C 89.894224,144.07122 89.939877,144.0682 89.947534,144.0646 C 89.955186,144.06099 90.169868,143.92252 90.437414,143.75227 C 90.974302,143.41062 91.344361,143.15756 91.602473,142.94996 C 91.695846,142.87485 91.777258,142.81252 91.797412,142.80632 C 91.817566,142.80013 91.87653,142.79701 91.91417,142.80257 L 91.961884,142.81977 L 92.140075,142.65481 C 92.226794,142.56528 92.457585,142.33492 92.650781,142.15139 C 93.327422,141.50858 93.549049,141.24949 93.676268,140.9321 L 93.695058,140.8472 L 93.878317,140.77574 L 94.030608,140.70841 L 94.102183,140.73421 L 94.173757,140.76 L 94.302193,140.68406 C 94.421471,140.62304 94.446899,140.61394 94.592564,140.57483 C 94.681154,140.55105 94.907484,140.50159 95.085474,140.46221 C 95.263494,140.42282 95.431116,140.38732 95.478396,140.37465 C 95.534406,140.35962 95.677036,140.33779 95.880936,140.32112 C 96.727856,140.2519 97.502556,140.11232 98.584106,139.84397 L 98.884116,139.76877 L 99.852696,139.36924 C 100.75938,138.99558 100.80506,138.98245 100.91419,138.95737 C 101.07619,138.92012 101.13545,138.89884 101.70203,138.67605 C 102.21385,138.47479 102.59177,138.31056 102.72291,138.23425 C 102.76348,138.21065 102.80417,138.19248 102.80617,138.18789 C 102.80815,138.18326 102.70706,138.18093 102.61073,138.17854 C 102.51441,138.17616 102.42579,138.17232 102.41529,138.16922 C 102.40478,138.16611 102.44611,138.11285 102.47215,138.06749 C 102.51107,137.9997 102.50952,137.9847 102.47418,137.96129 C 102.43203,137.93332 102.42459,137.92974 102.36454,137.95232 z M 104.39913,137.79949 L 104.03261,137.9424 C 103.84474,138.01729 103.69178,138.07599 103.66609,138.0853 C 103.64041,138.0946 103.45587,138.12007 103.26353,138.13882 L 102.89907,138.17553 L 102.80869,138.23461 C 102.61611,138.34197 102.29168,138.48573 101.85687,138.65546 C 101.62504,138.74596 101.41516,138.82981 101.4142,138.83204 C 101.41325,138.83424 101.47858,138.83368 101.55482,138.83687 C 101.92858,138.85251 102.4556,138.75557 103.24574,138.52963 C 103.521,138.45093 104.15903,138.25252 104.18133,138.24044 C 104.18779,138.23694 104.25093,138.21242 104.30266,138.17722 C 104.53741,138.01746 104.60132,137.93529 104.62096,137.86416 C 104.63423,137.81613 104.62733,137.81319 104.45395,137.80397 L 104.39913,137.79949 z M 95.011414,139.67162 C 94.970114,139.67506 94.784364,139.7116 94.625604,139.74647 C 93.276226,140.04286 92.310878,140.20952 91.26507,140.3228 C 91.133957,140.337 90.997384,140.35649 90.98638,140.35986 C 90.975373,140.36324 90.937549,140.39493 90.881805,140.44439 C 90.826057,140.49385 90.75642,140.55505 90.71783,140.5839 C 90.679236,140.61274 90.648947,140.63848 90.658432,140.63889 C 90.667914,140.6393 90.899925,140.60835 91.184848,140.56889 C 91.808425,140.48253 92.399574,140.38498 92.892532,140.28296 C 93.093472,140.24138 93.33299,140.19559 93.440269,140.17482 C 93.928081,140.08035 94.553454,139.91795 95.178434,139.73182 C 95.412036,139.66224 95.437256,139.65617 95.423616,139.65214 C 95.412226,139.64877 95.103694,139.66397 95.011414,139.67162 z M 116.39447,136.85188 C 116.38946,136.85426 116.38188,136.8868 116.3899,136.91135 C 116.39792,136.93591 116.41498,136.95414 116.41628,136.9667 L 116.40208,136.99214 L 116.69496,136.92964 C 116.8489,136.89615 116.97161,136.87041 116.9879,136.86715 C 117.01243,136.86222 116.99477,136.86119 116.9163,136.84135 C 116.80012,136.81198 116.71001,136.80913 116.51834,136.83541 C 116.44594,136.84534 116.39947,136.8495 116.39447,136.85188 z M 89.209113,139.19809 C 89.193417,139.20183 89.001194,139.86125 88.659052,140.01845 C 87.587461,140.51077 85.42754,137.58875 85.444175,138.36529 C 85.495439,140.75829 85.228523,138.4509 85.222842,138.45357 C 85.217158,138.45625 85.235429,138.46038 85.270556,138.47077 C 85.315824,138.48416 85.320388,138.50107 85.304059,138.5134 C 85.291388,138.52297 84.909776,138.69647 84.428374,138.90057 L 83.53594,139.26643 L 82.602895,139.60237 C 82.079648,136.42748 81.605729,139.94225 81.576954,139.95067 C 81.540237,139.96141 81.365898,140.06266 81.374412,139.95407 C 81.62493,136.75912 81.235307,139.94572 81.233793,139.94922 C 81.232287,139.9527 81.288332,139.95716 81.3673,139.96678 C 81.456702,139.97768 81.54664,139.9992 81.596241,140.01873 C 81.667862,140.04693 86.484577,136.02678 84.156429,139.84082 C 81.277658,144.55691 85.658712,136.21072 84.512867,140.02294 C 83.227712,144.29864 86.787223,135.74499 83.645237,139.77886 C 81.439995,142.61009 86.324554,134.99481 83.945169,140.07891 L 84.843767,139.18475 L 81.98204,139.9439 C 82.698572,136.59341 82.965933,139.83968 82.960267,139.5784 C 82.907364,137.13848 83.65833,139.3236 84.243079,139.07824 C 84.568675,138.94162 84.630157,138.91664 84.785747,138.8766 L 84.999831,139.71014 L 85.664089,139.21848 C 85.831211,139.13445 85.572691,138.52609 85.585285,138.5231 C 85.614274,138.51618 85.65249,138.53072 85.632999,138.54029 C 85.624978,138.54423 85.589193,138.57043 85.573604,138.59526 L 85.552284,138.63342 L 87.635404,138.10895 C 87.667461,138.09318 87.25682,140.3194 88.057063,139.92906 C 88.857297,139.53874 89.264646,141.35215 89.292864,141.33839 C 89.339147,141.31582 89.355456,141.30289 89.304543,141.26621 C 89.268229,141.24004 89.22748,139.19372 89.209113,139.19809 z M 116.67411,137.83877 L 116.59086,137.88516 C 116.54006,137.91193 116.50286,137.93949 116.50048,137.94426 C 116.49789,137.94946 116.57864,137.95132 116.7269,137.94947 C 116.91785,137.94709 117.10001,137.93723 117.49646,137.90599 C 118.18765,137.85156 118.44984,137.82189 118.77572,137.77121 C 119.03606,137.73071 119.07809,137.72112 119.26405,137.71805 C 119.6567,137.71157 120.13241,137.69117 120.64835,137.6517 C 121.04701,137.62118 122.42772,137.50928 122.4804,137.50225 C 122.50597,137.49883 122.6686,137.45673 122.84233,137.41882 L 123.13525,137.35633 L 123.27585,137.36117 L 123.3855,137.37013 L 123.7307,137.26537 C 124.45841,137.05343 124.58403,137.01326 124.77339,136.93839 L 124.84243,136.91744 L 124.78761,136.91296 C 124.65437,136.89509 124.47257,136.90826 124.1348,136.95267 C 123.61114,137.02153 123.64648,137.01438 123.49415,137.07318 L 123.35608,137.11509 L 123.21546,137.11024 L 123.08196,137.09267 L 122.95098,137.12185 C 122.5437,137.21229 121.97739,137.29653 121.47428,137.35352 C 121.18166,137.38667 120.48296,137.4601 118.19396,137.68376 L 116.67411,137.83877 z"
         style="opacity:0.57317074;fill:#000000;fill-opacity:1;stroke:#eedcc3;stroke-width:0.04805535;stroke-linecap:round;stroke-linejoin:round;stroke-miterlimit:4;stroke-dasharray:none;stroke-opacity:1;filter:url(#filter4447)" />
    </g>
  </g>
</svg>
