<?xml version="1.0" encoding="utf-8"?>
<!DOCTYPE svg PUBLIC '-//W3C//DTD SVG 1.0//EN'
          'http://www.w3.org/TR/2001/REC-SVG-20010904/DTD/svg10.dtd'>
<svg xmlns="http://www.w3.org/2000/svg" width="660" height="356.4" stroke-dashoffset="0" stroke-opacity="1" fill-opacity="1" stroke-dasharray="none" image-rendering="auto" color-rendering="auto" stroke-width="1" stroke-linecap="square" stroke-miterlimit="10" color-interpolation="auto" fill="#000000" stroke-linejoin="miter" stroke="#000000" shape-rendering="auto">
 <g transform="matrix(4.87942 0 0 4.87942-1061.18-882.66)" color-rendering="optimizeQuality" image-rendering="optimizeQuality" color-interpolation="linearRGB">
  <g stroke-linecap="butt" stroke-width="1.2" fill="none">
   <path d="m278.14 203.96l-15.391 8.886"/>
   <path d="m291.88 203.97l12.445 7.185"/>
   <path d="m321.58 211.65l9.355-16.204"/>
   <path d="m317.25 209.15l9.355-16.204"/>
   <path d="m317.44 226.18l9.02 15.618"/>
   <path d="m321.77 223.68l9.02 15.618"/>
   <path d="m252.36 208.47l-8.957-15.514"/>
   <path d="m248.03 210.97l-8.957-15.514"/>
   <path d="m248.23 223.68l-9.09 15.737"/>
   <path d="m252.56 226.18l-9.09 15.737"/>
   <path d="m242.5 220.72l-13.14 6.478"/>
   <path d="m244.71 225.21l-13.14 6.478"/>
   <path d="m325.34 225.03l13.01 6.178"/>
   <path d="m327.48 220.51l13.01 6.178"/>
  </g>
  <g font-family="Arial" text-rendering="geometricPrecision" font-size="14" stroke="none">
   <text x="279.53" y="204.93">O</text>
   <text x="245.25" y="222.34">Mn</text>
   <text x="305.87" y="222.34">Mn</text>
   <text x="327.34" y="192.12">O</text>
   <text x="327.34" y="252.74">O</text>
   <text x="231.72" y="192.12">O</text>
   <text x="231.72" y="252.74">O</text>
   <text x="217.83" y="237.91">O</text>
   <text x="341.46" y="237.45">O</text>
  </g>
 </g>
</svg>
