<?xml version="1.0" encoding="UTF-8" standalone="no"?>
<!-- Created with Inkscape (http://www.inkscape.org/) -->
<svg
   xmlns:dc="http://purl.org/dc/elements/1.1/"
   xmlns:cc="http://creativecommons.org/ns#"
   xmlns:rdf="http://www.w3.org/1999/02/22-rdf-syntax-ns#"
   xmlns:svg="http://www.w3.org/2000/svg"
   xmlns="http://www.w3.org/2000/svg"
   xmlns:sodipodi="http://sodipodi.sourceforge.net/DTD/sodipodi-0.dtd"
   xmlns:inkscape="http://www.inkscape.org/namespaces/inkscape"
   version="1.0"
   width="1214.8722"
   height="1332.3572"
   id="svg3787"
   sodipodi:version="0.32"
   inkscape:version="0.46"
   sodipodi:docname="Pioneer_plaque_humans.svg"
   inkscape:output_extension="org.inkscape.output.svg.inkscape">
  <metadata
     id="metadata5962">
    <rdf:RDF>
      <cc:Work
         rdf:about="">
        <dc:format>image/svg+xml</dc:format>
        <dc:type
           rdf:resource="http://purl.org/dc/dcmitype/StillImage" />
      </cc:Work>
    </rdf:RDF>
  </metadata>
  <sodipodi:namedview
     inkscape:window-height="718"
     inkscape:window-width="1022"
     inkscape:pageshadow="2"
     inkscape:pageopacity="0.0"
     guidetolerance="10.0"
     gridtolerance="10.0"
     objecttolerance="10.0"
     borderopacity="1.0"
     bordercolor="#666666"
     pagecolor="#ffffff"
     id="base"
     showgrid="false"
     inkscape:zoom="0.18688682"
     inkscape:cx="673.72984"
     inkscape:cy="546.88124"
     inkscape:window-x="0"
     inkscape:window-y="0"
     inkscape:current-layer="svg3787" />
  <defs
     id="defs3789">
    <inkscape:perspective
       sodipodi:type="inkscape:persp3d"
       inkscape:vp_x="0 : 666.17859 : 1"
       inkscape:vp_y="0 : 1000 : 0"
       inkscape:vp_z="1214.8722 : 666.17859 : 1"
       inkscape:persp3d-origin="607.4361 : 444.11906 : 1"
       id="perspective5964" />
  </defs>
  <rect
     style="fill:#fdeee1;fill-opacity:1;fill-rule:evenodd;stroke:none;stroke-width:5.00000095;stroke-linecap:round;stroke-linejoin:round;stroke-miterlimit:4;stroke-dasharray:none;stroke-opacity:1;display:inline;enable-background:new"
     id="rect4746"
     y="7.2998048e-08"
     x="-7.6171875e-07"
     ry="2.5096662"
     height="1332.3572"
     width="1214.8722" />
  <path
     style="fill:none;fill-rule:evenodd;stroke:#000000;stroke-width:6;stroke-linecap:round;stroke-linejoin:round;stroke-miterlimit:4;stroke-dasharray:none;display:inline;enable-background:new"
     id="path2632"
     d="M 738.33383,337.72441 C 740.37973,326.88156 742.42563,317.45294 741.53053,305.60103 M 806.85393,242.4872 C 808.78303,247.43711 802.83523,254.3024 796.88743,261.1677 C 803.78143,259.24499 810.69013,255.34816 815.66243,247.48848 M 817.49643,265.27 C 814.51893,269.19618 811.56323,270.1612 808.61503,270.13919 M 750.27323,318.07153 C 754.16043,324.02316 752.14373,330.91781 757.00653,337.86384 M 753.86823,363.50504 C 739.12653,363.39497 711.57963,367.13769 708.68243,360.20634 M 764.64953,367.53395 C 770.51693,371.52617 777.48403,359.73297 783.35873,362.73815 M 802.04613,360.90347 C 835.44583,363.12708 853.20883,353.3887 863.06583,349.5139 M 767.70743,352.75026 C 775.48923,363.66648 783.62913,326.21741 789.58413,318.36507 M 902.67283,708.12756 C 909.66913,692.38606 908.80323,676.58596 913.84133,659.84296 C 928.91173,615.53586 930.22343,571.12616 919.74163,526.62826 C 909.28913,478.18224 923.43523,425.97149 899.18733,382.35797 C 889.51303,361.55659 855.24743,343.53291 818.04083,324.50016 C 806.30593,316.51573 804.48653,296.76011 805.66663,270.11718 M 876.84663,612.18586 C 871.16913,582.53036 849.65043,568.55026 849.78193,550.78336 C 845.07273,523.10941 881.48643,516.4716 853.68743,421.50228 M 875.45103,535.18146 C 877.22663,560.85936 878.99483,587.52426 876.83933,613.17286 C 870.75263,638.79206 874.46463,668.43276 871.30443,697.03506 C 862.35713,710.78776 857.32643,726.54386 856.21203,744.30326 C 852.17143,759.07966 851.08623,772.89106 853.95423,783.77056 C 864.75743,784.83836 868.85663,762.16566 873.95323,737.52606 C 872.91193,745.41506 872.85343,753.31146 871.81963,760.21346 C 876.63853,773.08186 878.51633,784.94106 871.54923,796.73426 C 867.47923,815.45876 872.38583,816.48256 878.30443,813.56536 C 880.20423,822.46346 883.16723,820.51146 888.11763,815.61286 C 891.07313,814.64776 895.01163,813.69026 899.99853,803.85636 C 901.97143,802.88396 903.95153,800.92456 905.95363,796.00396 C 912.89883,787.17196 912.97183,777.30156 911.07943,767.41636 C 911.24013,745.70136 908.44523,724.95136 900.74383,703.17756 M 863.92813,498.57267 C 865.83513,506.48372 876.42643,536.17584 886.12263,554.01606 M 791.31963,482.23688 C 833.22083,530.91773 886.67793,479.0005 852.60243,435.31359 M 835.56643,479.60596 C 841.47763,477.67589 842.48973,473.73505 841.54343,468.79247 C 837.59043,471.72426 834.59823,477.62453 835.56643,479.60596 z M 694.02493,481.51039 C 699.92163,481.55442 701.90913,478.60794 699.98743,472.67099 M 747.07293,484.86779 C 707.46963,524.05613 658.57203,491.11667 688.46433,436.06219 C 689.48373,431.13429 690.51033,425.21935 688.58123,420.26943 M 694.88353,498.29752 C 693.71803,522.96635 684.66853,550.53756 681.53753,575.19186 M 740.36513,328.85566 C 729.45233,342.5936 717.57863,353.36306 702.80053,358.18822 C 673.25873,365.86445 654.43993,385.46595 652.21133,420.98497 C 655.74053,475.30189 651.53183,512.78034 641.53603,535.40903 C 630.55013,559.01736 627.42653,582.68456 629.21673,606.38836 C 628.85863,654.75356 638.30643,706.15346 618.33673,748.44976 C 615.34463,754.35006 615.30803,759.28516 619.20263,764.24976 C 626.97713,776.15306 630.80603,790.00106 641.53613,800.93936 C 646.42073,804.92426 650.31533,809.88876 655.19993,813.87376 M 687.01763,631.49756 C 689.90753,639.41586 693.78753,646.35456 698.65763,652.31356 M 825.12493,562.44456 C 825.19803,552.57406 828.20483,544.69976 834.13063,540.79556 M 746.09383,617.13206 C 746.06453,621.08036 750.97113,622.10396 752.95133,620.14456 C 753.96323,616.20376 749.05663,615.17996 746.09383,617.13206 z M 822.42873,661.13446 C 825.42083,655.23426 827.42303,650.31376 828.44953,644.39876 M 800.46433,707.36426 L 802.43713,706.39186 M 792.54363,715.20196 C 777.72163,725.94946 770.74723,738.72966 770.63033,754.52246 C 756.95913,742.57516 743.29533,729.64076 733.61373,709.82636 C 724.87093,695.94166 714.14813,684.01646 703.41793,673.07816 M 630.11543,750.51186 C 634.95623,760.41906 634.87593,771.27666 639.70943,782.17076 C 642.62853,786.14096 645.56943,787.15006 649.47143,791.12756 M 700.75823,501.30269 C 708.32823,540.84326 692.41373,566.38906 671.60753,588.93716 C 661.64823,606.63046 656.58093,627.32186 656.40553,651.01096 C 659.13463,680.64436 645.15663,710.15296 643.95463,739.75716 C 648.34243,810.86116 673.44153,872.24886 699.54543,930.68286 M 712.99013,973.22842 C 697.34603,962.25356 689.64453,940.47986 688.88103,910.86116 M 706.06683,979.09942 C 701.21133,971.16632 698.31423,964.23506 698.38003,955.35156 M 756.18833,979.47362 C 756.29793,964.66806 758.33663,954.81216 763.30883,946.95256 M 717.83813,982.14862 C 727.65863,983.20902 730.65813,976.32172 728.76563,966.43652 C 727.81203,962.48116 727.84123,958.53296 728.85333,954.59196 M 696.45103,950.40176 C 672.56473,990.69442 735.19573,1159.9566 725.13423,1191.4686 M 771.60583,755.51686 C 774.12293,813.77456 763.15903,834.42186 765.88823,864.05526 C 765.78593,877.87386 775.39443,907.55876 768.34693,930.20946 C 756.40753,949.86226 774.03903,957.89076 775.66113,1004.2966 C 763.44403,1061.4573 773.97703,1099.0459 762.41383,1200.631 M 760.81363,1151.2639 C 780.22073,1184.9703 784.98853,1204.7479 774.13403,1210.5896 C 765.25263,1215.4588 755.38833,1220.3205 745.52403,1225.1824 M 725.22183,1179.6241 C 719.28863,1184.5153 715.23333,1201.2657 707.32733,1207.1294 C 698.41663,1215.9467 680.66083,1224.6981 677.64683,1233.5595 C 672.66723,1242.4062 682.53873,1236.5573 687.47453,1233.6329 C 663.69793,1259.12 681.38793,1259.252 691.37643,1237.6104 C 673.54033,1257.2192 667.44643,1283.8255 699.19473,1243.5914 C 670.46773,1273.9771 680.25903,1278.9856 706.03043,1249.565 C 703.04553,1254.4783 691.15723,1267.2218 688.17233,1272.1351 C 693.02783,1280.068 703.89673,1272.2525 714.76573,1264.4368 C 724.58623,1265.4973 732.52143,1255.6855 739.52513,1238.9571 C 742.56103,1227.1345 747.54073,1218.2877 753.48853,1211.4224 M 1005.9447,1229.1012 C 1016.6894,1238.0653 1023.5176,1245.026 1029.3486,1253.9534 C 1034.2113,1260.8995 1034.1456,1269.7829 1021.4864,1253.8947 C 1037.0647,1273.7531 1034.0725,1279.6534 1017.4895,1262.7489 C 1037.9889,1281.6568 1034.953,1293.4794 1012.5391,1267.6474 C 1038.8914,1292.5216 1035.8846,1300.396 1005.5939,1276.4794 C 1014.3877,1283.4548 1023.1815,1290.4302 1027.0835,1294.4077 C 1023.0866,1303.2618 1015.2244,1303.2031 1006.4013,1300.1759 C 998.56843,1296.169 992.75213,1285.2674 983.90713,1285.2013 C 970.17753,1281.1505 964.55123,1244.5858 955.79393,1232.6751 M 938.32313,1202.9316 C 931.18803,1237.4269 931.18803,1237.4269 960.59823,1247.5175 M 896.63733,992.36762 C 887.85093,984.40522 883.97823,976.47952 884.05133,966.60902 M 865.15213,997.06802 C 845.19703,1037.3901 903.62283,1110.8721 915.20423,1139.5845 C 926.80753,1165.3357 936.41613,1195.0206 948.98763,1222.7533 M 871.92923,1010.938 C 863.25223,988.17002 828.10623,956.32026 813.08333,861.44636 C 810.20803,851.55396 780.17313,793.09066 772.56663,758.48526 M 928.01313,1002.4729 C 933.21193,964.01476 917.67023,939.22116 915.11643,885.89876 C 911.37543,860.20606 918.52513,823.73686 910.89673,792.09256 M 931.08563,985.71522 C 967.06113,1038.3001 961.35813,1144.8646 971.97863,1170.6085 C 974.75163,1194.3197 1002.0867,1219.2014 1010.7489,1243.9435 M 916.27833,994.48842 C 918.25843,992.52912 920.24593,989.58262 920.27523,985.63442 M 902.26363,763.40216 C 896.33043,768.29336 895.30393,774.20826 898.18633,783.11366 C 897.13063,792.97676 893.12643,802.81796 888.13953,812.65176 M 901.98603,800.90996 L 906.16553,767.37966 M 877.31433,814.54516 C 883.30603,801.75756 890.29503,787.00326 890.36813,777.13266 C 888.44643,771.19566 889.47293,765.28076 891.48963,758.38616 M 723.59573,204.35565 C 743.34623,191.67081 752.35193,170.02182 752.43233,159.16431 C 737.65423,163.98946 725.79523,172.78482 711.86823,195.38416 C 701.97483,204.19421 710.72473,217.09187 702.68713,240.72228 C 691.70863,263.34365 730.76383,298.18382 706.75343,355.25643 M 865.02403,350.51562 C 862.20723,332.72676 855.48853,310.96035 857.58563,293.20819 C 859.86533,250.77985 854.26103,211.25394 830.88633,182.45345 C 816.29083,162.60243 802.67803,142.75876 786.91713,147.57658 C 760.36763,149.35254 750.44483,162.11076 747.36513,179.8556 C 749.19183,198.62417 759.96573,203.64012 775.67553,205.73163 C 790.37323,211.76398 792.27313,220.66209 795.15563,229.56752 C 802.93753,240.48375 811.77513,241.53684 818.59613,249.48459 C 820.38633,273.18839 816.23603,302.77044 822.94733,325.5239" />
  <path
     style="fill:none;fill-rule:evenodd;stroke:#000000;stroke-width:5;stroke-linecap:round;stroke-linejoin:round;display:inline;enable-background:new"
     id="path2644"
     d="M 723.58113,209.32228 C 719.59163,216.85412 719.53313,226.09679 720.45753,233.66376 C 717.47993,237.42266 719.40893,242.16167 720.36253,245.94867 C 717.29733,261.0475 722.13083,271.47755 727.93973,282.85961 C 732.78053,292.34468 737.63593,299.93976 743.48153,306.59687 C 783.78253,305.93993 800.61393,289.99447 803.77413,262.61074" />
  <path
     style="fill:none;fill-rule:evenodd;stroke:#000000;stroke-width:6;stroke-linecap:round;stroke-linejoin:round;stroke-miterlimit:4;stroke-dasharray:none;display:inline;enable-background:new"
     id="path2666"
     d="M 316.80023,725.01606 C 315.69333,741.71586 326.35773,761.45176 331.13273,780.16106 C 336.74443,818.53306 335.46213,858.81956 342.05653,897.19886 C 341.90313,917.83716 366.21673,952.41696 373.86713,980.97582" />
  <path
     style="fill:none;fill-rule:evenodd;stroke:#000000;stroke-width:6;stroke-linecap:round;stroke-linejoin:round;stroke-miterlimit:4;stroke-dasharray:none;display:inline;enable-background:new"
     id="path2694"
     d="M 432.19703,663.43396 C 426.31223,660.46146 430.52023,592.66486 412.89003,577.85076 C 420.79653,567.07196 419.89383,547.41216 415.07213,524.78782 C 405.31233,508.04024 412.28803,484.48126 422.21623,459.95151 M 400.27763,296.71556 C 399.27483,301.62552 402.20713,305.56871 409.08273,306.57958 M 253.44403,152.62626 C 247.63543,130.98074 257.40453,119.06758 262.28053,140.88085 M 348.61863,191.34413 C 355.52223,185.47544 361.45103,177.63716 362.45393,172.72719 M 357.39553,208.08771 C 341.59473,226.69664 320.87173,247.2511 307.12473,244.24659 C 283.52973,246.11594 275.76753,221.51403 265.05713,196.90008 C 267.05873,188.06296 263.15963,180.18458 260.24343,172.3102 C 262.24503,163.47307 262.28913,152.66235 256.38833,153.62109 M 92.20563,166.71061 L 99.08113,167.72146 M 225.73073,923.03626 C 210.85243,956.39106 225.27753,1034.0919 249.47863,1124.6092 C 255.26703,1151.1687 249.28613,1171.7833 237.42043,1189.4255 M 283.55953,1202.3903 C 267.81093,1208.2228 256.94803,1220.9551 249.98823,1240.5829 C 245.01013,1256.2875 233.20453,1259.1879 218.47463,1256.1792 C 207.61983,1266.9458 196.79303,1270.8329 186.03043,1258.9954 C 182.10733,1257.0138 179.17493,1253.0705 178.21223,1248.1524 C 178.22823,1244.2214 178.24023,1241.2729 179.23503,1238.3286 C 178.27633,1232.4278 179.28323,1226.535 183.23843,1220.6544 C 188.19243,1210.8465 195.08813,1206.9434 203.93323,1206.9794 C 211.79963,1206.0288 231.54773,1183.5045 247.34453,1165.8786 M 198.95113,1223.667 C 192.05543,1227.57 185.15593,1232.4558 179.23503,1238.3286 M 196.02683,1217.7581 C 192.09163,1218.7248 188.15243,1220.6743 185.19593,1222.628 M 206.78533,1230.5785 C 196.94133,1234.4696 190.02183,1244.2694 180.16983,1250.1261 M 216.59323,1235.5326 C 209.67763,1244.3497 193.94093,1247.2339 185.05163,1258.0085 C 190.96453,1254.1014 201.77913,1253.1628 203.76083,1249.2395 M 289.53663,1182.7585 C 293.49983,1174.9121 289.70493,1141.481 293.65613,1136.5831 M 306.99383,999.04412 C 306.90563,1020.6655 303.86903,1042.275 296.89733,1064.8512 M 295.96243,1053.0536 C 295.79413,1094.3311 300.54373,1134.6456 308.23763,1175.955 C 317.92523,1210.3928 288.44143,1210.2725 264.83043,1216.0732 M 389.57703,1233.2899 C 359.19453,1212.5269 367.05293,1213.5418 374.04073,1187.0343 M 375.42453,1088.7591 C 379.23133,1119.2417 371.23273,1152.6246 373.06603,1185.0648 C 388.73463,1198.888 393.56433,1219.5468 388.53803,1247.045 C 385.54153,1258.8265 390.42343,1266.7089 402.20093,1270.6882 C 407.05083,1286.4329 416.85863,1291.387 431.62863,1284.5675 C 435.55573,1285.5663 439.49503,1283.6168 442.46343,1278.7149 C 445.41183,1278.7269 447.38943,1275.7866 449.37113,1271.8634 C 452.32733,1269.9098 455.28393,1267.9563 455.31183,1261.0767 C 454.38123,1248.2964 448.52863,1237.4616 442.67593,1226.6268 C 431.96543,1202.0129 423.20853,1180.3554 410.44423,1177.3548 C 416.34913,1175.4132 421.27893,1171.5022 420.34433,1159.7047 C 417.46013,1143.9679 418.50703,1128.2473 424.46793,1112.5467 C 441.44003,1047.7502 450.54993,982.92202 423.29623,917.94536 M 352.47103,933.38136 C 342.49063,970.68742 347.25233,1008.0536 364.79013,1045.472 M 401.55453,947.34096 C 404.52693,941.45626 401.60663,934.56456 406.52463,933.60206 M 421.31453,921.86856 C 425.34203,898.29746 425.43023,876.67606 423.54883,856.02936 M 415.60623,875.65326 C 416.63723,863.86366 421.59533,853.07306 429.50583,841.31146 C 437.45633,819.72206 441.47173,799.09946 440.57313,778.45696 M 405.62993,911.97646 C 404.67933,904.11006 406.67303,897.23856 408.66663,890.36706 M 361.46443,897.05416 C 359.46673,904.90836 362.37113,915.73116 370.20123,923.62576 C 367.20093,936.38986 370.10103,948.19546 380.91583,947.25686 M 298.53753,903.67716 C 316.05953,945.02656 314.93233,980.40312 301.04093,1012.7791 M 291.50163,941.97796 C 288.61343,927.22396 287.69473,911.49536 297.57883,897.77636 C 296.62813,889.90996 298.62583,882.05556 302.58503,875.19206 C 302.70533,845.70826 303.80833,816.22846 300.02563,779.84916 C 305.01573,761.19606 307.05353,743.51366 306.14693,724.83666 M 231.55923,939.76776 C 218.89923,911.21476 210.16633,883.66026 209.28773,858.10376 M 247.40823,909.36526 C 246.46553,899.53336 242.57453,889.68946 234.75223,879.82936 C 242.57453,889.68946 250.41693,894.63546 258.27513,895.65036 M 201.62153,571.24756 C 190.77073,581.03146 191.69733,592.67316 194.58143,608.40996 C 197.46573,624.14666 184.62133,640.80206 184.55723,656.52666 C 182.40303,702.71006 194.99493,747.97076 195.78933,794.16596 C 193.66333,833.46966 206.33943,858.09176 224.94033,875.85806 M 346.02303,656.36116 C 371.67193,632.87836 370.53773,600.28246 386.33053,583.63916 M 337.84883,663.04896 L 340.80933,660.11266 M 230.02623,594.59736 C 247.64833,611.37706 247.47193,654.62006 271.99763,665.53096 M 315.22453,667.87076 C 307.31413,679.63226 310.22243,689.47216 312.13583,702.25646 C 315.01613,718.97606 295.35613,719.87866 293.44683,706.11146 C 289.56363,694.30196 299.43973,682.54856 294.56573,672.70056 M 328.99163,665.96126 C 323.07083,671.83396 320.09053,679.68436 323.97353,691.49386 C 327.83243,709.20006 324.82403,723.92996 303.20243,723.84186 C 287.47383,724.76056 282.58783,717.86096 279.68773,706.05526 C 276.80343,690.31856 285.64053,692.32026 278.85713,668.70506 M 473.43023,674.41296 C 474.34883,690.14186 475.26753,705.87036 472.25503,721.58316 C 473.19763,731.41496 469.23453,739.26136 464.28853,747.10366 C 458.31953,764.76986 447.47263,773.57096 434.66033,782.36396 C 430.72513,783.33086 426.79793,782.33186 423.85353,781.33706 C 420.90523,781.32506 417.95683,781.31306 415.99523,780.32216 C 409.11963,779.31126 409.13573,775.38016 411.12133,770.47426 C 425.96753,744.98176 429.97503,726.32466 427.08663,711.57086 M 462.38303,732.35376 C 454.47243,744.11516 451.47603,755.89666 452.41473,766.71156 M 427.78473,781.35306 C 444.55233,766.67936 447.60913,740.15596 454.52453,731.33886 M 447.67323,724.43126 C 437.79703,736.18476 437.69693,760.75456 417.96493,779.34736 M 442.05713,655.61166 C 433.17573,664.42066 417.40713,675.16736 412.42083,692.83746 C 410.41523,702.65746 390.71523,713.38806 391.67403,719.28876 C 394.53813,739.93946 420.21513,709.57706 435.94773,707.67556 M 442.65843,508.19261 C 435.67473,533.71716 437.52403,562.22626 442.31773,591.73006 C 446.20883,601.57406 442.14533,633.99016 441.06633,657.57316 M 453.34893,537.72049 C 454.38393,524.94824 449.51403,514.11744 436.77783,504.23737 C 426.02723,489.45136 429.04363,472.7559 422.21623,459.95151 C 417.35843,446.17237 422.39273,416.7086 418.54583,396.05388 M 480.51383,383.53018 C 497.07703,418.97891 487.10473,454.31938 489.99703,468.09052 C 490.89553,488.7332 508.38133,538.92787 496.42353,579.17416 C 485.49243,608.61396 485.34423,644.97736 475.37993,678.35226 M 193.48593,395.13572 C 194.35253,423.64074 199.15433,451.179 207.88313,479.71612 C 213.69963,499.39604 209.69623,517.07028 204.71413,533.75769 C 192.85253,550.41716 197.71433,565.33466 208.48103,576.18956 M 295.03093,560.81786 C 298.95813,561.81666 299.86703,560.84186 300.86193,557.89746 M 318.12043,439.87065 C 335.79863,442.89118 347.31953,509.76927 365.97643,513.77663 M 250.00683,513.30351 C 284.44073,504.5987 265.06153,436.70574 308.29643,438.84775 M 278.92483,411.20924 C 229.78113,411.99156 192.45513,406.92523 196.57063,361.73276 C 196.61483,350.92203 195.65603,345.02126 192.74383,336.16408 M 313.37883,397.59046 C 307.44993,405.42876 298.58473,410.30664 285.80843,410.2545 M 429.54893,348.92391 C 416.58413,395.06308 421.43403,410.80782 366.40153,409.6005 C 347.72443,410.50712 325.13233,407.46652 320.25033,399.58412 M 306.94433,288.4723 C 311.83823,293.40633 316.76023,291.46078 320.71943,284.59727 M 303.09743,267.8176 L 313.87993,274.74126 L 332.65733,249.2648 M 221.46533,282.22672 C 235.26853,271.47212 249.06363,262.68311 262.85083,255.85968 C 271.71613,250.9818 272.75903,236.24391 272.83523,217.57083 M 288.28723,284.46495 C 273.54943,283.42201 259.78223,285.33147 246.99383,288.22772 C 225.36443,290.1051 220.52263,272.39476 185.07393,288.95792 C 161.43063,302.6208 152.53343,315.36103 151.49853,328.13334 M 161.31853,330.13902 C 147.57143,327.13449 129.82893,339.83865 118.97413,350.60528 M 125.60113,412.54934 C 127.73103,372.26282 101.36403,330.87724 107.42513,290.60675 C 107.52543,266.03691 110.56603,243.4447 123.40643,227.77212 C 131.30093,219.94185 136.25093,211.11675 138.24853,203.26241 C 144.17753,195.42413 149.11543,189.5474 154.04553,185.63629 C 161.96803,170.92647 143.28693,172.81586 126.52733,185.52402 C 123.55493,191.40875 116.65123,197.27744 107.78213,203.13812 C 86.12843,210.91227 84.11473,222.69777 86.02833,235.48211 C 85.06153,231.54692 83.10793,228.59052 82.13713,225.63813 M 61.40633,248.15818 C 52.34073,302.17574 42.18793,381.74193 54.82783,415.20905 M 161.96833,411.71491 C 156.03963,419.55319 140.28693,426.3686 131.40163,436.16045 M 178.99263,334.14238 C 204.48523,348.98852 203.39403,375.51995 186.57833,401.9872 C 177.65303,421.607 154.03803,428.39032 132.38443,436.16445 C 110.71493,447.86978 95.96483,449.77521 82.21383,447.7535 C 52.73793,445.66763 54.74363,435.84771 57.84033,399.49638 M 172.90753,380.30961 L 184.74113,370.52979 M 226.91303,392.32366 C 231.79883,399.22326 241.64683,394.34938 232.81783,390.38213 M 223.33463,305.82178 C 227.26583,305.83782 231.20913,302.90547 233.19063,298.98232 M 318.51733,342.57407 C 320.49093,340.61651 321.48573,337.67212 320.52303,332.75415 M 318.43313,363.21273 C 319.41993,362.23395 321.39753,359.2936 321.40963,356.34521 M 391.04753,391.02767 C 383.17723,392.96117 391.01543,398.89001 395.94543,394.97889 M 334.48653,282.68781 C 353.15973,282.76399 372.77943,291.68932 391.48053,284.88595 M 474.53283,404.14478 C 477.56553,383.51815 483.55853,359.95516 478.72073,341.26204 C 469.05313,301.9102 442.62603,275.2665 405.24783,282.97649 M 374.54013,101.03137 C 391.15543,123.70377 391.09113,139.42847 379.24963,151.17389 C 381.14303,168.8722 375.21813,175.72769 367.33583,180.60957 C 367.31563,185.52355 364.34333,191.40828 362.35773,196.31425 C 353.45653,210.03727 358.27413,233.64436 360.14763,256.25662 M 349.01553,94.047569 C 352.07623,66.541369 332.50053,46.805313 299.02143,62.393683 C 293.08443,72.197569 287.19183,71.190709 280.30813,72.145449 C 270.48433,71.122549 267.50783,77.990079 264.53543,83.874809 C 262.53373,92.711939 253.68053,94.641439 247.76773,98.548549 C 243.81253,104.42928 242.80563,110.32202 246.71273,116.23482 C 237.81943,127.99227 235.80573,139.77777 246.57243,150.63261 C 244.57073,159.46973 248.48993,162.43415 252.41703,163.43298 C 250.42743,169.32173 251.39013,174.2397 256.28413,179.17371 C 257.21873,190.97124 261.13383,194.91847 266.03583,197.88688 M 65.29733,258.00215 C 53.60413,233.3842 42.89363,208.77026 47.90783,184.22047 C 41.12853,159.62256 42.19153,139.97069 51.05663,135.09281 C 57.93223,136.10367 54.88363,160.66148 60.70013,180.34141 C 60.78833,158.71996 59.93393,127.26654 75.69063,119.46835 C 83.54093,122.4488 70.66033,147.94932 75.47813,171.55641 C 80.49643,146.02383 84.54773,116.55604 92.44223,108.72578 C 103.24493,110.73548 88.35873,146.0559 96.13273,167.70944 C 100.13223,151.01798 96.31723,122.50093 107.15203,116.64828 C 117.91463,128.4859 109.88803,168.74837 116.66323,194.32906 M 83.36053,166.67453 C 79.42133,168.62406 76.47703,167.62925 75.47813,171.55641 M 56.76493,181.30816 L 65.62613,177.41308 M 413.11803,281.04298 C 400.41003,264.28337 369.01263,251.37874 359.25293,234.63116 M 374.41583,131.49796 C 377.30813,145.26911 373.32073,159.01219 362.45393,172.72719 C 363.47273,163.88605 365.47853,154.06613 352.74233,144.18608 C 338.02833,137.24638 335.13603,123.47524 343.08663,101.88585 C 327.28583,120.49479 313.51063,124.36982 300.76243,117.43814 M 349.08773,76.357279 C 364.82853,72.490249 371.64383,88.243029 373.50913,112.82088 M 312.57993,111.5895 C 296.89533,101.69741 280.03543,138.9754 264.32283,135.96287" />
  <path
     style="fill:none;fill-rule:evenodd;stroke:#000000;stroke-width:6;stroke-linecap:round;stroke-linejoin:round;stroke-miterlimit:4;stroke-dasharray:none;display:inline;enable-background:new"
     id="path2696"
     d="M 362.58893,1043.7929 C 360.42613,1070.3134 365.12813,1098.8504 373.76113,1127.4166" />
  <path
     style="fill:none;fill-rule:evenodd;stroke:#000000;stroke-width:5;stroke-linecap:round;stroke-linejoin:round;display:inline;enable-background:new"
     id="path2718"
     d="M 453.33303,1264.6214 C 451.40403,1259.6929 443.58573,1253.7379 442.64673,1247.8339" />
  <path
     style="fill:none;fill-rule:evenodd;stroke:#000000;stroke-width:5;stroke-linecap:round;stroke-linejoin:round;display:inline;enable-background:new"
     id="path2720"
     d="M 433.77993,1250.7165 C 432.76053,1255.623 448.41193,1265.5677 447.36333,1274.4053" />
  <path
     style="fill:none;fill-rule:evenodd;stroke:#000000;stroke-width:5;stroke-linecap:round;stroke-linejoin:round;display:inline;enable-background:new"
     id="path2722"
     d="M 425.88113,1255.5719 C 434.67493,1262.5171 437.53563,1274.3323 444.37113,1280.2801" />
  <path
     style="fill:none;fill-rule:evenodd;stroke:#000000;stroke-width:5;stroke-linecap:round;stroke-linejoin:round;display:inline;enable-background:new"
     id="path2724"
     d="M 418.94323,1263.383 C 424.78873,1270.3062 431.63173,1275.2712 432.55593,1283.1407" />
  <path
     style="fill:none;fill-rule:evenodd;stroke:#000000;stroke-width:5;stroke-linecap:round;stroke-linejoin:round;display:inline;enable-background:new"
     id="path2726"
     d="M 429.62223,1281.1532 C 414.87343,1282.0264 417.86543,1276.1517 421.84783,1269.3015" />
  <path
     style="fill:none;fill-rule:evenodd;stroke:#000000;stroke-width:5;stroke-linecap:round;stroke-linejoin:round;stroke-miterlimit:4;stroke-dasharray:none;stroke-opacity:0.25098041;display:inline;enable-background:new"
     id="path3347"
     d="M 237.24003,1290.3745 C 250.56413,1308.9296 264.35803,1327.2774 278.61863,1345.4039 L 279.90033,1242.9152 M 279.90033,38.906153 L 279.90033,-436.82664 C -114.92587,65.459329 -132.58787,692.40066 173.50643,1194.2325" />
  <path
     style="fill:none;fill-rule:evenodd;stroke:#000000;stroke-width:6;stroke-linecap:round;stroke-linejoin:miter;stroke-miterlimit:4;stroke-dasharray:none;stroke-opacity:0.25098041;display:inline;enable-background:new"
     id="path4200"
     d="M 622.20363,451.09862 L 519.23443,451.09862 M 1054.6031,451.09862 L 944.79683,451.09862 M 686.40803,306.414 L 395.45743,192.06534 M 1054.4521,451.06171 L 935.49943,404.31126 M 601.61793,643.76836 L 500.98123,686.57036 M 1054.5561,451.12803 L 944.38513,497.98512" />
  <path
     style="fill:none;fill-rule:evenodd;stroke:#000000;stroke-width:6;stroke-linecap:round;stroke-linejoin:miter;stroke-miterlimit:4;stroke-dasharray:none;stroke-opacity:1;display:inline;enable-background:new"
     id="path4213"
     d="M 1104.7862,145.25195 L 1180.5458,145.25195" />
  <path
     style="fill:none;fill-rule:evenodd;stroke:#000000;stroke-width:6;stroke-linecap:round;stroke-linejoin:miter;stroke-miterlimit:4;stroke-dasharray:none;stroke-opacity:1;display:inline;enable-background:new"
     id="path4215"
     d="M 1104.7862,1303.5271 L 1180.5458,1303.5271" />
  <path
     style="fill:none;fill-rule:evenodd;stroke:#000000;stroke-width:5;stroke-linecap:round;stroke-linejoin:miter;stroke-miterlimit:4;stroke-dasharray:none;stroke-opacity:0.25098041;display:inline;enable-background:new"
     id="path4211"
     d="M 502.47363,703.33216 L 602.46703,703.33216 M 936.09153,703.33216 L 1065.0242,703.33216 M -904.96134,703.33216 L 155.90863,703.33216 M 1067.9125,693.74336 L 1067.9125,712.92086" />
  <path
     style="fill:none;fill-rule:evenodd;stroke:#000000;stroke-width:6;stroke-linecap:round;stroke-linejoin:miter;stroke-miterlimit:4;stroke-dasharray:none;stroke-opacity:1;display:inline;enable-background:new"
     id="path4221"
     d="M 1144.3675,671.99456 L 1144.3675,687.67836" />
  <path
     style="fill:none;fill-rule:evenodd;stroke:#000000;stroke-width:6;stroke-linecap:round;stroke-linejoin:miter;stroke-miterlimit:4;stroke-dasharray:none;stroke-opacity:1;display:inline;enable-background:new"
     id="path4223"
     d="M 1144.3675,703.93696 L 1144.3675,718.95526" />
  <path
     style="fill:none;fill-rule:evenodd;stroke:#000000;stroke-width:6;stroke-linecap:round;stroke-linejoin:miter;stroke-miterlimit:4;stroke-dasharray:none;stroke-opacity:1;display:inline;enable-background:new"
     id="path4225"
     d="M 1144.3675,736.21216 L 1144.3675,740.41666" />
  <path
     style="fill:none;fill-rule:evenodd;stroke:#000000;stroke-width:6;stroke-linecap:round;stroke-linejoin:miter;stroke-miterlimit:4;stroke-dasharray:none;stroke-opacity:1;display:inline;enable-background:new"
     id="path4227"
     d="M 1144.3675,752.01706 L 1144.3675,752.22876" />
  <path
     style="fill:none;fill-rule:evenodd;stroke:#000000;stroke-width:6;stroke-linecap:round;stroke-linejoin:miter;stroke-miterlimit:4;stroke-dasharray:none;stroke-opacity:1;display:inline;enable-background:new"
     id="path4229"
     d="M 1151.8767,776.49556 L 1136.8584,776.49556" />
  <path
     style="fill:none;fill-rule:evenodd;stroke:#000000;stroke-width:5;stroke-linecap:round;stroke-linejoin:miter;stroke-miterlimit:4;stroke-dasharray:none;stroke-opacity:0.25098041;display:inline;enable-background:new"
     id="path3389"
     d="M -46.39037,967.62072 L -40.58047,969.39152 L -34.77297,971.16092" />
  <path
     style="fill:none;fill-rule:evenodd;stroke:#000000;stroke-width:5;stroke-linecap:round;stroke-linejoin:miter;stroke-miterlimit:4;stroke-dasharray:none;stroke-opacity:0.25098041;display:inline;enable-background:new"
     id="path3391"
     d="M -6.63977,979.80412 L -0.82987,981.57492 L 4.97763,983.34432" />
  <path
     style="fill:none;fill-rule:evenodd;stroke:#000000;stroke-width:5;stroke-linecap:round;stroke-linejoin:miter;stroke-miterlimit:4;stroke-dasharray:none;stroke-opacity:0.25098041;display:inline;enable-background:new"
     id="path3393"
     d="M 19.15133,987.68842 L 24.96123,989.45922 L 30.76873,991.22862" />
  <path
     style="fill:none;fill-rule:evenodd;stroke:#000000;stroke-width:5;stroke-linecap:round;stroke-linejoin:miter;stroke-miterlimit:4;stroke-dasharray:none;stroke-opacity:0.25098041;display:inline;enable-background:new"
     id="path3395"
     d="M 45.02743,995.63982 L 50.83733,997.41062 L 56.64483,999.18002" />
  <path
     style="fill:none;fill-rule:evenodd;stroke:#000000;stroke-width:5;stroke-linecap:round;stroke-linejoin:miter;stroke-miterlimit:4;stroke-dasharray:none;stroke-opacity:0.25098041;display:inline;enable-background:new"
     id="path3419"
     d="M -31.53607,978.50572 L -29.76527,972.69582 L -27.99587,966.88832" />
  <path
     style="fill:none;fill-rule:evenodd;stroke:#000000;stroke-width:5;stroke-linecap:round;stroke-linejoin:miter;stroke-miterlimit:4;stroke-dasharray:none;stroke-opacity:0.25098041;display:inline;enable-background:new"
     id="path3421"
     d="M -23.10977,981.08832 L -21.33897,975.27842 L -19.56957,969.47092" />
  <path
     style="fill:none;fill-rule:evenodd;stroke:#000000;stroke-width:5;stroke-linecap:round;stroke-linejoin:miter;stroke-miterlimit:4;stroke-dasharray:none;stroke-opacity:0.25098041;display:inline;enable-background:new"
     id="path3423"
     d="M -14.53417,983.71672 L -12.76337,977.90682 L -10.99397,972.09932" />
  <path
     style="fill:none;fill-rule:evenodd;stroke:#000000;stroke-width:5;stroke-linecap:round;stroke-linejoin:miter;stroke-miterlimit:4;stroke-dasharray:none;stroke-opacity:0.25098041;display:inline;enable-background:new"
     id="path3425"
     d="M 10.85903,991.49952 L 12.62983,985.68962 L 14.39923,979.88212" />
  <path
     style="fill:none;fill-rule:evenodd;stroke:#000000;stroke-width:5;stroke-linecap:round;stroke-linejoin:miter;stroke-miterlimit:4;stroke-dasharray:none;stroke-opacity:0.25098041;display:inline;enable-background:new"
     id="path3427"
     d="M 36.82353,999.45752 L 38.59433,993.64762 L 40.36373,987.84012" />
  <path
     style="fill:none;fill-rule:evenodd;stroke:#000000;stroke-width:4;stroke-linecap:round;stroke-linejoin:miter;stroke-miterlimit:4;stroke-dasharray:none;stroke-opacity:1;display:inline;enable-background:new"
     id="path4286"
     d="M 318.97723,186.04826 C 321.31923,190.35891 322.12153,198.13434 315.89543,197.06914 C 312.92883,196.56161 309.89193,196.16551 308.29403,197.15753 C 305.65203,198.79779 303.42633,199.50024 300.60423,198.21819 C 298.01293,197.04099 295.21523,197.2928 291.67703,197.4227 C 286.12073,197.6267 287.00603,192.57563 290.08603,186.63932" />
  <path
     style="fill:none;fill-rule:evenodd;stroke:#000000;stroke-width:4;stroke-linecap:round;stroke-linejoin:miter;stroke-miterlimit:4;stroke-dasharray:none;stroke-opacity:1;display:inline;enable-background:new"
     id="path4288"
     d="M 298.97723,222.54825 C 302.50533,224.67146 307.03273,224.67365 311.22723,222.79825" />
  <path
     style="fill:none;fill-rule:evenodd;stroke:#000000;stroke-width:4;stroke-linecap:round;stroke-linejoin:miter;stroke-miterlimit:4;stroke-dasharray:none;stroke-opacity:1;display:inline;enable-background:new"
     id="path4290"
     d="M 299.10153,187.5232 C 299.72673,182.10205 301.16263,176.67634 300.86933,171.25975 C 300.66023,167.39787 299.65023,164.28219 299.10163,161.36025" />
  <path
     style="fill:none;fill-rule:evenodd;stroke:#000000;stroke-width:4;stroke-linecap:round;stroke-linejoin:miter;stroke-miterlimit:4;stroke-dasharray:none;stroke-opacity:1;display:inline;enable-background:new"
     id="path4292"
     d="M 344.00293,156.05695 C 341.22313,153.99188 338.65723,153.44967 336.22473,153.22852 C 334.37073,153.05996 332.00603,152.8359 329.50723,152.87497 C 327.44543,152.90721 326.75893,152.46563 323.18613,152.62497 C 320.74333,152.73391 317.54463,153.86145 316.42573,155.34984" />
  <path
     style="fill:none;fill-rule:evenodd;stroke:#000000;stroke-width:4;stroke-linecap:round;stroke-linejoin:miter;stroke-miterlimit:4;stroke-dasharray:none;stroke-opacity:1;display:inline;enable-background:new"
     id="path4294"
     d="M 270.85223,151.92325 C 273.78833,155.02747 278.28143,153.42614 281.72723,152.54825 C 285.50863,151.58487 292.07063,151.46159 295.47723,156.79825" />
  <path
     style="fill:none;fill-rule:evenodd;stroke:#000000;stroke-width:4;stroke-linecap:round;stroke-linejoin:miter;stroke-miterlimit:4;stroke-dasharray:none;stroke-opacity:1;display:inline;enable-background:new"
     id="path4296"
     d="M 736.44713,263.36041 C 740.77293,269.08347 746.44103,268.76923 752.18023,264.59785 C 759.74873,266.93685 761.57553,263.54868 760.31203,257.52677" />
  <path
     style="fill:none;fill-rule:evenodd;stroke:#000000;stroke-width:4;stroke-linecap:round;stroke-linejoin:miter;stroke-miterlimit:4;stroke-dasharray:none;stroke-opacity:1;display:inline;enable-background:new"
     id="path4298"
     d="M 746.22723,289.29826 C 749.02513,290.61393 753.67933,290.91017 757.09593,289.38665" />
  <path
     style="fill:none;fill-rule:evenodd;stroke:#000000;stroke-width:4;stroke-linecap:round;stroke-linejoin:miter;stroke-miterlimit:4;stroke-dasharray:none;stroke-opacity:1;display:inline;enable-background:new"
     id="path4300"
     d="M 734.28293,233.4637 C 732.59193,230.80981 729.71673,230.56388 727.07803,230.43705 C 725.45103,230.4829 723.87073,231.37218 721.59793,230.12639" />
  <path
     style="fill:none;fill-rule:evenodd;stroke:#000000;stroke-width:4;stroke-linecap:round;stroke-linejoin:miter;stroke-miterlimit:4;stroke-dasharray:none;stroke-opacity:1;display:inline;enable-background:new"
     id="path4302"
     d="M 776.63613,230.51027 C 774.85353,228.4922 770.64003,228.73885 768.09023,228.88895 C 764.86783,229.28585 762.02983,229.47109 760.13523,230.86382 C 758.24473,231.90683 756.68073,232.7969 755.45693,232.50659" />
  <path
     style="fill:none;fill-rule:evenodd;stroke:#000000;stroke-width:4;stroke-linecap:round;stroke-linejoin:miter;stroke-miterlimit:4;stroke-dasharray:none;stroke-opacity:1;display:inline;enable-background:new"
     id="path4304"
     d="M 742.33083,239.50537 C 743.90043,244.42622 743.02313,249.34708 742.84333,254.26793" />
  <path
     style="fill:#000000;fill-opacity:1;fill-rule:evenodd;stroke:none;stroke-width:0.5;stroke-linecap:butt;stroke-linejoin:miter;stroke-miterlimit:4;stroke-dasharray:none;stroke-opacity:1;display:inline;enable-background:new"
     id="path4308"
     d="M 765.79213,281.34874 C 768.39593,280.47823 768.56683,278.49564 766.40453,277.32576 C 764.81863,276.46773 762.89083,276.84767 761.01913,277.32576 C 759.28883,277.76772 756.19423,278.26292 755.18553,277.47221 C 752.63283,275.4712 750.25683,275.16087 748.29123,276.2651 C 747.03943,276.96835 744.89003,277.04254 743.51823,276.61866 C 740.54763,275.70078 739.49043,277.52283 736.09363,278.83465 C 733.41063,279.87082 734.71543,283.85805 738.92203,282.48262 C 740.87573,281.84381 743.13113,282.27881 744.75563,282.6594 C 746.56363,283.08296 748.53393,283.49826 750.31783,282.98262 C 752.49193,282.35418 755.30503,281.16928 756.77653,281.56841 C 759.35353,282.26738 763.22253,282.20779 765.79213,281.34874 z" />
  <path
     style="fill:none;fill-rule:evenodd;stroke:#000000;stroke-width:4;stroke-linecap:round;stroke-linejoin:miter;stroke-miterlimit:4;stroke-dasharray:none;stroke-opacity:1;display:inline;enable-background:new"
     id="path4310"
     d="M 761.37263,245.68274 C 761.58613,239.48525 771.85313,237.76979 778.69683,241.61687" />
  <path
     style="fill:#000000;fill-opacity:1;fill-rule:evenodd;stroke:none;stroke-width:4;stroke-linecap:round;stroke-linejoin:round;stroke-miterlimit:4;stroke-dasharray:none;stroke-opacity:1;display:inline;enable-background:new"
     id="path4312"
     d="M 773.57012,242.76586 C 773.57438,244.28402 772.63185,245.68841 771.09865,246.44855 C 769.56545,247.20868 767.67532,247.20868 766.14212,246.44855 C 764.60892,245.68841 763.66638,244.28402 763.67065,242.76586 C 763.66638,241.2477 764.60892,239.84332 766.14212,239.08318 C 767.67532,238.32305 769.56545,238.32305 771.09865,239.08318 C 772.63185,239.84332 773.57438,241.2477 773.57012,242.76586 z" />
  <path
     style="fill:none;fill-rule:evenodd;stroke:#000000;stroke-width:4;stroke-linecap:round;stroke-linejoin:miter;stroke-miterlimit:4;stroke-dasharray:none;stroke-opacity:1;display:inline;enable-background:new"
     id="path4314"
     d="M 739.45233,246.74339 C 734.47663,239.26414 729.59943,239.79646 723.49953,240.20266" />
  <path
     style="fill:#000000;fill-opacity:1;fill-rule:evenodd;stroke:none;stroke-width:4;stroke-linecap:round;stroke-linejoin:round;stroke-miterlimit:4;stroke-dasharray:none;stroke-opacity:1;display:inline;enable-background:new"
     id="path4316"
     d="M 735.7255,245.18048 C 735.40033,246.66342 734.17559,247.8299 732.514,248.23934 C 730.85242,248.64876 729.00729,248.23874 727.6755,247.16411 C 726.3437,246.08948 725.72827,244.51407 726.06177,243.03299 C 726.38694,241.55005 727.61168,240.38357 729.27327,239.97413 C 730.93485,239.56471 732.77998,239.97473 734.11177,241.04936 C 735.44357,242.12399 736.059,243.6994 735.7255,245.18048 z" />
  <path
     style="fill:#000000;fill-opacity:1;fill-rule:evenodd;stroke:none;stroke-width:0.5;stroke-linecap:butt;stroke-linejoin:miter;stroke-miterlimit:4;stroke-dasharray:none;stroke-opacity:1;display:inline;enable-background:new"
     id="path4318"
     d="M 319.25413,214.57004 C 327.00613,212.66945 325.48673,209.12017 319.69613,208.73641 C 318.54603,208.66019 316.39743,207.89624 315.01153,207.67575 C 313.07303,207.36733 310.38313,207.23301 308.47083,207.67574 C 306.66363,208.09413 304.38793,209.12985 301.75323,207.67575 C 299.51393,206.43983 295.78073,207.07544 293.97513,208.0293 C 291.92423,209.11278 286.37373,209.44351 286.37373,209.44351 C 282.79503,211.89045 283.24553,213.88968 286.02013,215.6307 C 286.02013,215.6307 289.86783,215.12466 291.50023,214.90214 C 294.04423,214.55534 297.53053,213.2062 299.63193,214.4602 C 301.86393,215.79212 305.83163,215.25539 308.29403,214.42359 C 311.58593,213.31161 316.41833,215.2653 319.25413,214.57004 z" />
  <path
     style="fill:none;fill-rule:evenodd;stroke:#000000;stroke-width:5;stroke-linecap:round;stroke-linejoin:round;stroke-miterlimit:4;stroke-dasharray:none;stroke-opacity:1;display:inline;enable-background:new"
     id="path4320"
     d="M 319.43093,167.90099 C 322.05343,161.26572 333.61553,156.31592 338.87633,166.66355" />
  <path
     style="fill:#000000;fill-opacity:1;fill-rule:evenodd;stroke:none;stroke-width:4;stroke-linecap:round;stroke-linejoin:round;stroke-miterlimit:4;stroke-dasharray:none;stroke-opacity:1;display:inline;enable-background:new"
     id="path4322"
     d="M 336.04802,164.719 C 336.04802,167.35506 333.11968,169.492 329.50725,169.492 C 325.89481,169.492 322.96647,167.35506 322.96647,164.719 C 322.96647,162.08294 325.89481,159.946 329.50725,159.946 C 333.11968,159.946 336.04802,162.08294 336.04802,164.719 z" />
  <path
     style="fill:none;fill-rule:evenodd;stroke:#000000;stroke-width:5;stroke-linecap:round;stroke-linejoin:round;stroke-miterlimit:4;stroke-dasharray:none;stroke-opacity:1;display:inline;enable-background:new"
     id="path4324"
     d="M 294.18433,168.03049 C 289.75903,160.79556 279.21153,160.56101 274.72723,165.79826" />
  <path
     style="fill:#000000;fill-opacity:1;fill-rule:evenodd;stroke:none;stroke-width:4;stroke-linecap:round;stroke-linejoin:round;stroke-miterlimit:4;stroke-dasharray:none;stroke-opacity:1;display:inline;enable-background:new"
     id="path4326"
     d="M 290.79331,165.77966 C 290.79331,168.41572 287.94411,170.55266 284.4293,170.55266 C 280.9145,170.55266 278.0653,168.41572 278.0653,165.77966 C 278.0653,163.1436 280.9145,161.00666 284.4293,161.00666 C 287.94411,161.00666 290.79331,163.1436 290.79331,165.77966 z" />
</svg>
